<?xml version="1.0" encoding="utf-8"?>
<!-- Svg Vector Icons : http://www.onlinewebfonts.com/icon -->
<!DOCTYPE svg PUBLIC "-//W3C//DTD SVG 1.1//EN" "http://www.w3.org/Graphics/SVG/1.1/DTD/svg11.dtd">
<svg version="1.1" xmlns="http://www.w3.org/2000/svg" xmlns:xlink="http://www.w3.org/1999/xlink" x="0px" y="0px" viewBox="0 0 1000 1000" enable-background="new 0 0 1000 1000" xml:space="preserve">
<metadata> Svg Vector Icons : http://www.onlinewebfonts.com/icon </metadata>
<g><g transform="translate(0.000000,512.000000) scale(0.100000,-0.100000)"><path fill="#1976D2" d="M4512.5,5012.2c-955.8-78.7-1591.1-449.1-1950-1132.4l-99.8-193.8l21.1-201.5c71-623.8,393.5-1307,930.8-1969.2c90.2-113.2,165.1-209.2,165.1-215c0-5.8-38.4-61.4-84.4-124.8c-46.1-63.3-88.3-124.8-92.1-136.3c-3.8-13.4-587.3,301.3-1389.5,750.4C1255.5,2213.9,627.9,2565.1,622.1,2569c-21.1,11.5-295.6-543.2-372.3-748.5c-117.1-318.6-151.6-499-149.7-817.6c0-220.7,9.6-309,40.3-426.1c61.4-226.5,147.8-416.5,278.3-614.2c109.4-163.1,128.6-184.2,243.7-239.9C1255.5-572.9,2171-647.7,3170.9-484.6l78.7,13.4l69.1-147.8c38.4-82.5,69.1-155.4,69.1-161.2c0-7.7-621.8-366.6-1381.9-798.4C1245.9-2010.4,624-2369.3,624-2377c0-28.8,330.1-506.7,451-648.7c499-598.8,1101.7-880.9,1794.5-838.7l201.5,11.5l163.1,109.4c209.2,143.9,512.4,443.3,692.9,687.1c247.6,333.9,497.1,794.6,652.5,1205.3c55.7,149.7,67.2,168.9,103.6,159.3c23-5.8,103.6-17.3,178.5-23l138.2-13.4v-1531.6v-1533.5h92.1c205.4,0,621.8,42.2,842.6,86.4c712,143.9,1199.5,489.4,1500.9,1067.1l101.7,191.9l-21.1,195.8c-23,213.1-88.3,479.8-168.9,694.8c-138.2,372.3-443.3,882.9-765.8,1284c-117.1,145.8-163.1,214.9-149.7,232.2c9.6,15.4,51.8,76.8,92.1,138.2c42.2,61.4,76.8,113.2,80.6,117.1c1.9,3.8,621.9-339.7,1380-763.9c756.2-424.2,1387.6-765.8,1401.1-760c44.1,17.3,326.3,610.3,399.2,836.8c101.7,322.4,117.1,422.2,115.2,719.7c0,209.2-9.6,301.3-40.3,416.5c-61.4,224.6-147.8,416.5-278.3,614.2c-109.4,165-128.6,182.3-243.8,239.9c-274.5,134.3-658.3,234.1-1074.8,276.4c-276.4,28.8-846.4,13.4-1170.8-32.6c-370.4-51.8-337.8-61.4-416.5,113.2c-38.4,80.6-65.2,151.6-61.4,155.5c3.8,5.8,625.7,358.9,1380,788.8c754.3,429.9,1376.1,785,1380,788.8c11.5,11.5-168.9,289.8-316.7,489.4c-537.4,719.7-1151.6,1046-1907.8,1007.6l-220.7-11.5l-157.4-107.5c-524-355.1-1015.3-1034.5-1332-1846.3c-72.9-188.1-90.2-215-122.8-207.3c-21.1,5.8-101.7,15.4-176.6,23l-140.1,13.4v1531.6v1533.5l-147.8-1.9C4769.7,5029.5,4616.1,5021.8,4512.5,5012.2z M5224.5,1014.4c155.4-42.2,272.5-107.5,399.2-226.5c305.1-284,381.9-706.3,199.6-1084.4c-24.9-49.9-105.6-153.6-180.4-228.4c-203.5-205.4-418.4-289.8-696.7-272.5c-656.4,42.2-1055.6,719.7-775.4,1318.5c63.3,136.3,286,360.8,416.5,424.2C4786.9,1039.3,5032.6,1066.2,5224.5,1014.4z"/></g></g>
</svg>