<svg xmlns="http://www.w3.org/2000/svg">
  <symbol
    id="cooling-coil"
    viewBox="0 0 20 29"
    version="1.1"
    xmlns="http://www.w3.org/2000/svg"
  >
    <g stroke="#000" transform="matrix(1, 0, 0, 1, -6.058399, -1.3729)">
      <rect
        id="rect4367"
        height="27.246"
        width="17.868"
        x="7.066"
        y="2.3772"
        fill="#1976D2"
      />
      <g transform="translate(24.9334,29.6232) rotate(180)">
        <rect
          id="rect4367"
          class="cooling-coil"
          height="27.246"
          width="17.875"
          x="0"
          y="0"
          fill="#1976D2"
          stroke="none"
        />
      </g>
      <rect
        id="rect4367"
        height="27.246"
        width="17.868"
        x="7.066"
        y="2.3772"
        fill="none"
      />
      <path
        id="path3001"
        d="m7.322 2.3729 17.424 27.254"
        stroke-width="1px"
        fill="none"
      />
      <path
        id="path3003"
        d="m24.929 2.3734-17.642 27.182"
        stroke-width="1px"
        fill="none"
      />
    </g>
  </symbol>
  <symbol id="cursor" viewBox="0 0 320 512">
    <path
      d="M302.189 329.126H196.105l55.831 135.993c3.889 9.428-.555 19.999-9.444 23.999l-49.165 21.427c-9.165 4-19.443-.571-23.332-9.714l-53.053-129.136-86.664 89.138C18.729 472.71 0 463.554 0 447.977V18.299C0 1.899 19.921-6.096 30.277 5.443l284.412 292.542c11.472 11.179 3.007 31.141-12.5 31.141z"
      fill="#1976D2"
    />
  </symbol>
  <symbol id="damper" viewBox="0 0 13.431694 28.950886" version="1.1">
    <rect
      id="rect4367"
      class="damper"
      height="27.5"
      width="12"
      stroke="#000000"
      stroke-miterlimit="4"
      x="0.69481522"
      y="0.67645228"
      stroke-dasharray="none"
      stroke-width="1"
      fill="#1976d2"
    />
    <g
      stroke="#000000"
      stroke-width="1.5px"
      id="g19"
      transform="translate(-9.3051848,-1.5735477)"
    >
      <g transform="translate(16,7)" id="g5">
        <line
          x1="-5"
          x2="5"
          y1="0"
          y2="0"
          transform="rotate(-35)"
          class="damper-line"
          id="line3"
        />
      </g>
      <g transform="translate(16,13)" id="g9">
        <line
          x1="-5"
          x2="5"
          y1="0"
          y2="0"
          transform="rotate(-35)"
          class="damper-line"
          id="line7"
        />
      </g>
      <g transform="translate(16,19)" id="g13">
        <line
          x1="-5"
          x2="5"
          y1="0"
          y2="0"
          transform="rotate(-35)"
          class="damper-line"
          id="line11"
        />
      </g>
      <g transform="translate(16,25)" id="g17">
        <line
          x1="-5"
          x2="5"
          y1="0"
          y2="0"
          transform="rotate(-35)"
          class="damper-line"
          id="line15"
        />
      </g>
    </g>
    <g
      id="g4877"
      stroke-linejoin="miter"
      transform="matrix(1.2268237,0,0,0.94845469,-13.299764,-1.1862851)"
      stroke="#000000"
      stroke-linecap="butt"
      fill="none"
    >
      <path
        id="path4317"
        stroke-width="1.06273px"
        d="m 16.298,2.2402 v 28.442"
      />
    </g>
  </symbol>
  <symbol
    id="duct"
    viewBox="0 0 226 75"
    version="1.1"
    xmlns="http://www.w3.org/2000/svg"
    xmlns:bx="https://boxy-svg.com"
  >
    <g
      transform="matrix(0.999094, 0, 0, 1, -225.698334, 3.357005)"
      bx:origin="0.5 0.5"
    >
      <path
        d="M 225.903 35.245 L 250 71.643 L 452.108 71.643 L 435.361 35.245 L 452.108 -3.408 L 250 -1.153 L 225.903 35.245 Z"
        fill="#1976D2"
      />
    </g>
  </symbol>
  <symbol
    id="fan"
    version="1.1"
    xmlns="http://www.w3.org/2000/svg"
    xmlns:xlink="http://www.w3.org/1999/xlink"
    x="0px"
    y="0px"
    viewBox="0 0 1000 1000"
    enable-background="new 0 0 1000 1000"
    xml:space="preserve"
  >
    <g>
      <g transform="translate(0.000000,512.000000) scale(0.100000,-0.100000)">
        <path
          fill="#1976D2"
          d="M4512.5,5012.2c-955.8-78.7-1591.1-449.1-1950-1132.4l-99.8-193.8l21.1-201.5c71-623.8,393.5-1307,930.8-1969.2c90.2-113.2,165.1-209.2,165.1-215c0-5.8-38.4-61.4-84.4-124.8c-46.1-63.3-88.3-124.8-92.1-136.3c-3.8-13.4-587.3,301.3-1389.5,750.4C1255.5,2213.9,627.9,2565.1,622.1,2569c-21.1,11.5-295.6-543.2-372.3-748.5c-117.1-318.6-151.6-499-149.7-817.6c0-220.7,9.6-309,40.3-426.1c61.4-226.5,147.8-416.5,278.3-614.2c109.4-163.1,128.6-184.2,243.7-239.9C1255.5-572.9,2171-647.7,3170.9-484.6l78.7,13.4l69.1-147.8c38.4-82.5,69.1-155.4,69.1-161.2c0-7.7-621.8-366.6-1381.9-798.4C1245.9-2010.4,624-2369.3,624-2377c0-28.8,330.1-506.7,451-648.7c499-598.8,1101.7-880.9,1794.5-838.7l201.5,11.5l163.1,109.4c209.2,143.9,512.4,443.3,692.9,687.1c247.6,333.9,497.1,794.6,652.5,1205.3c55.7,149.7,67.2,168.9,103.6,159.3c23-5.8,103.6-17.3,178.5-23l138.2-13.4v-1531.6v-1533.5h92.1c205.4,0,621.8,42.2,842.6,86.4c712,143.9,1199.5,489.4,1500.9,1067.1l101.7,191.9l-21.1,195.8c-23,213.1-88.3,479.8-168.9,694.8c-138.2,372.3-443.3,882.9-765.8,1284c-117.1,145.8-163.1,214.9-149.7,232.2c9.6,15.4,51.8,76.8,92.1,138.2c42.2,61.4,76.8,113.2,80.6,117.1c1.9,3.8,621.9-339.7,1380-763.9c756.2-424.2,1387.6-765.8,1401.1-760c44.1,17.3,326.3,610.3,399.2,836.8c101.7,322.4,117.1,422.2,115.2,719.7c0,209.2-9.6,301.3-40.3,416.5c-61.4,224.6-147.8,416.5-278.3,614.2c-109.4,165-128.6,182.3-243.8,239.9c-274.5,134.3-658.3,234.1-1074.8,276.4c-276.4,28.8-846.4,13.4-1170.8-32.6c-370.4-51.8-337.8-61.4-416.5,113.2c-38.4,80.6-65.2,151.6-61.4,155.5c3.8,5.8,625.7,358.9,1380,788.8c754.3,429.9,1376.1,785,1380,788.8c11.5,11.5-168.9,289.8-316.7,489.4c-537.4,719.7-1151.6,1046-1907.8,1007.6l-220.7-11.5l-157.4-107.5c-524-355.1-1015.3-1034.5-1332-1846.3c-72.9-188.1-90.2-215-122.8-207.3c-21.1,5.8-101.7,15.4-176.6,23l-140.1,13.4v1531.6v1533.5l-147.8-1.9C4769.7,5029.5,4616.1,5021.8,4512.5,5012.2z M5224.5,1014.4c155.4-42.2,272.5-107.5,399.2-226.5c305.1-284,381.9-706.3,199.6-1084.4c-24.9-49.9-105.6-153.6-180.4-228.4c-203.5-205.4-418.4-289.8-696.7-272.5c-656.4,42.2-1055.6,719.7-775.4,1318.5c63.3,136.3,286,360.8,416.5,424.2C4786.9,1039.3,5032.6,1066.2,5224.5,1014.4z"
        />
      </g>
    </g>
  </symbol>
  <symbol id="filter" viewBox="0 0 13 29">
    <g
      stroke="#000"
      stroke-width="1"
      transform="matrix(1, 0, 0, 1, -9.37, -1.3252)"
    >
      <rect
        id="rect4367"
        height="27.35"
        width="11.26"
        y="2.3252"
        x="10.37"
        fill="#1976D2"
      />
      <path
        id="path3756"
        stroke-linejoin="miter"
        d="m11.892,2.6997,8.2165,4.4334-8.2165,4.4334,8.2165,4.4334-8.2165,4.4334,8.2165,4.4334-8.2165,4.4334"
        stroke-linecap="round"
        stroke-miterlimit="4"
        stroke-dasharray="none"
        stroke-width="1.2694304"
        fill="none"
      />
    </g>
  </symbol>
  <symbol
    id="heating-coil"
    viewBox="0 0 19.526541 28.758413"
    version="1.1"
    xmlns:xlink="http://www.w3.org/1999/xlink"
    xmlns="http://www.w3.org/2000/svg"
    xmlns:svg="http://www.w3.org/2000/svg"
  >
    <defs id="defs3">
      <rect id="heating-coil-rect" height="27.246" width="17.868" x="0" y="0" />
    </defs>
    <g stroke="#000000" id="g15" transform="translate(-6.129206,-1.5327875)">
      <use
        xlink:href="#heating-coil-rect"
        fill="#1976d2"
        stroke="none"
        x="7.066"
        y="2.3771999"
        id="use6"
      />
      <g transform="rotate(180,12.4667,14.8116)" id="g10">
        <use
          xlink:href="#heating-coil-rect"
          class="heating-coil"
          x="0"
          y="0"
          fill="#1976d2"
          stroke="none"
          id="use8"
        />
      </g>
      <use
        xlink:href="#heating-coil-rect"
        stroke-width="1"
        fill="none"
        x="7.066"
        y="2.3771999"
        id="use12"
      />
      <path
        id="path3003"
        stroke-linejoin="miter"
        d="M 24.929,2.3734 7.2868,29.555"
        stroke="#000000"
        stroke-linecap="butt"
        stroke-width="1px"
        fill="none"
      />
    </g>
  </symbol>
  <symbol
    id="humidifier"
    viewBox="0 0 18 25"
    version="1.1"
    xmlns="http://www.w3.org/2000/svg"
    xmlns:bx="https://boxy-svg.com"
  >
    <g
      class="duct-humidifier"
      transform="matrix(1, 0, 0, 1, -3.324199, -7.877)"
    >
      <g id="g11" transform="translate(0 5.1505)">
        <g
          id="g13"
          stroke="#000"
          stroke-width=".5"
          class="water-drops"
          fill="#1976D2"
        >
          <path
            id="path4150"
            d="m14.291 6.7851c0.46542-0.0958 0.69019-0.27099 0.99164-0.49615 0.10429-0.07789 0.23068-0.12587 0.37088-0.12587 0.34281 0 0.62078 0.27918 0.62078 0.62199s-0.27796 0.61956-0.62078 0.61956c-0.13834 0-0.26988-0.0428-0.37088-0.1222-0.29895-0.23498-0.52493-0.40696-0.99168-0.49732z"
          />
          <g id="g4236" transform="translate(0 .17167)">
            <path
              id="path4150-7"
              d="m18.179 5.3612c0.46542-0.0958 0.69019-0.27099 0.99164-0.49615 0.10429-0.07789 0.23068-0.12587 0.37088-0.12587 0.34281 0 0.62078 0.27918 0.62078 0.62199s-0.27796 0.61956-0.62078 0.61956c-0.13834 0-0.26988-0.0428-0.37088-0.1222-0.29895-0.23498-0.52493-0.40696-0.99168-0.49732z"
            />
            <path
              id="path4150-7-1"
              d="m18.234 7.8656c0.46542-0.0958 0.69019-0.27099 0.99164-0.49615 0.10429-0.07789 0.23068-0.12587 0.37088-0.12587 0.34281 0 0.62078 0.27918 0.62078 0.62199s-0.27796 0.61956-0.62078 0.61956c-0.13834 0-0.26988-0.0428-0.37088-0.1222-0.29895-0.23498-0.52493-0.40696-0.99168-0.49732z"
            />
          </g>
        </g>
        <g id="g19" transform="translate(0,8)">
          <g
            id="g21"
            stroke="#000"
            stroke-width=".5"
            class="water-drops water-drops-2"
            fill="#1976D2"
          >
            <path
              id="path23"
              d="m14.291 6.7851c0.46542-0.0958 0.69019-0.27099 0.99164-0.49615 0.10429-0.07789 0.23068-0.12587 0.37088-0.12587 0.34281 0 0.62078 0.27918 0.62078 0.62199s-0.27796 0.61956-0.62078 0.61956c-0.13834 0-0.26988-0.0428-0.37088-0.1222-0.29895-0.23498-0.52493-0.40696-0.99168-0.49732z"
            />
            <g id="g25" transform="translate(0 .17167)">
              <path
                id="path27"
                d="m18.179 5.3612c0.46542-0.0958 0.69019-0.27099 0.99164-0.49615 0.10429-0.07789 0.23068-0.12587 0.37088-0.12587 0.34281 0 0.62078 0.27918 0.62078 0.62199s-0.27796 0.61956-0.62078 0.61956c-0.13834 0-0.26988-0.0428-0.37088-0.1222-0.29895-0.23498-0.52493-0.40696-0.99168-0.49732z"
              />
              <path
                id="path29"
                d="m18.234 7.8656c0.46542-0.0958 0.69019-0.27099 0.99164-0.49615 0.10429-0.07789 0.23068-0.12587 0.37088-0.12587 0.34281 0 0.62078 0.27918 0.62078 0.62199s-0.27796 0.61956-0.62078 0.61956c-0.13834 0-0.26988-0.0428-0.37088-0.1222-0.29895-0.23498-0.52493-0.40696-0.99168-0.49732z"
              />
            </g>
          </g>
        </g>
      </g>
      <path
        id="rect4136-6"
        class="humidifier-body"
        d="m4.3242 8.877v22.586h4.0059v-9.883h4.3789v-2.617h-4.3789v-5.721h4.3789v-2.617h-4.3789v-1.748h-4.0059z"
        stroke="#000"
        fill="#1976D2"
      />
    </g>
  </symbol>
  <symbol
    id="temperature"
    version="1.1"
    viewBox="0 0 10.423067 22.852614"
    inkscape:version="1.2.1 (9c6d41e410, 2022-07-14, custom)"
    sodipodi:docname="temperature.svg"
    xmlns:inkscape="http://www.inkscape.org/namespaces/inkscape"
    xmlns:sodipodi="http://sodipodi.sourceforge.net/DTD/sodipodi-0.dtd"
    xmlns="http://www.w3.org/2000/svg"
    xmlns:svg="http://www.w3.org/2000/svg"
    xmlns:rdf="http://www.w3.org/1999/02/22-rdf-syntax-ns#"
    xmlns:cc="http://creativecommons.org/ns#"
    xmlns:dc="http://purl.org/dc/elements/1.1/"
  >
    <g
      id="layer1"
      stroke="#000000"
      stroke-width="1px"
      transform="translate(-10.804626,-9.2243756)"
    >
      <rect
        id="rect3012"
        height="14.505"
        width="2.901"
        y="9.9127998"
        x="14.557"
        fill="#ffff00"
      />
      <path
        id="path3010"
        stroke-width="1.2px"
        transform="matrix(0.74098,0,0,0.74098,7.3047,15.679)"
        fill="#1976d2"
        d="m 17.949,15.898 -3.1021,5.373 H 8.6427 L 5.5406,15.898 8.6427,10.525 h 6.2042 z"
      />
    </g>
    <g id="g4141" transform="translate(-1.2033861,-8.1217684)">
      <circle
        r="0.77312505"
        cy="28.129852"
        cx="6.4061227"
        id="path4137"
        style="
          fill: none;
          fill-opacity: 1;
          stroke: #000000;
          stroke-width: 0.5;
          stroke-miterlimit: 4;
          stroke-dasharray: none;
          stroke-opacity: 1;
        "
      />
      <path
        inkscape:connector-curvature="0"
        id="path4139"
        d="M 6.4061205,27.157211 V 23.65349"
        style="
          fill: none;
          fill-rule: evenodd;
          stroke: #000000;
          stroke-width: 0.5;
          stroke-linecap: butt;
          stroke-linejoin: miter;
          stroke-miterlimit: 4;
          stroke-dasharray: none;
          stroke-opacity: 1;
        "
      />
    </g>
  </symbol>

  <symbol id="power_settings_new" viewBox="0 0 24 24">
    <path d="M0 0h24v24H0z" fill="none" />
    <path
      d="M13 3h-2v10h2V3zm4.83 2.17l-1.42 1.42C17.99 7.86 19 9.81 19 12c0 3.87-3.13 7-7 7s-7-3.13-7-7c0-2.19 1.01-4.14 2.58-5.42L6.17 5.17C4.23 6.82 3 9.26 3 12c0 4.97 4.03 9 9 9s9-4.03 9-9c0-2.74-1.23-5.18-3.17-6.83z"
    />
  </symbol>
  <symbol id="grid_view" viewBox="0 0 24 24">
    <g fill-rule="evenodd">
      <path d="M0 0h24v24H0z" fill="none" />
      <path
        d="M3 3v8h8V3H3zm6 6H5V5h4v4zm-6 4v8h8v-8H3zm6 6H5v-4h4v4zm4-16v8h8V3h-8zm6 6h-4V5h4v4zm-6 4v8h8v-8h-8zm6 6h-4v-4h4v4z"
      />
    </g>
  </symbol>
  <symbol
    id="question_mark"
    enable-background="new 0 0 24 24"
    viewBox="0 0 24 24"
  >
    <g><rect fill="none" height="24" width="24" /></g>
    <g>
      <path
        d="M11.07,12.85c0.77-1.39,2.25-2.21,3.11-3.44c0.91-1.29,0.4-3.7-2.18-3.7c-1.69,0-2.52,1.28-2.87,2.34L6.54,6.96 C7.25,4.83,9.18,3,11.99,3c2.35,0,3.96,1.07,4.78,2.41c0.7,1.15,1.11,3.3,0.03,4.9c-1.2,1.77-2.35,2.31-2.97,3.45 c-0.25,0.46-0.35,0.76-0.35,2.24h-2.89C10.58,15.22,10.46,13.95,11.07,12.85z M14,20c0,1.1-0.9,2-2,2s-2-0.9-2-2c0-1.1,0.9-2,2-2 S14,18.9,14,20z"
      />
    </g>
  </symbol>
  <symbol id="help" viewBox="0 0 24 24">
    <path d="M0 0h24v24H0z" fill="none" />
    <path
      d="M12 2C6.48 2 2 6.48 2 12s4.48 10 10 10 10-4.48 10-10S17.52 2 12 2zm1 17h-2v-2h2v2zm2.07-7.75l-.9.92C13.45 12.9 13 13.5 13 15h-2v-.5c0-1.1.45-2.1 1.17-2.83l1.24-1.26c.37-.36.59-.86.59-1.41 0-1.1-.9-2-2-2s-2 .9-2 2H8c0-2.21 1.79-4 4-4s4 1.79 4 4c0 .88-.36 1.68-.93 2.25z"
    />
  </symbol>
  <symbol id="bolt" viewBox="0 0 24 24">
    <path
      d="M11 21h-1l1-7H7.5c-.58 0-.57-.32-.38-.66.19-.34.05-.08.07-.12C8.48 10.94 10.42 7.54 13 3h1l-1 7h3.5c.49 0 .56.33.47.51l-.07.15C12.96 17.55 11 21 11 21z"
    />
  </symbol>
  <symbol id="error" viewBox="0 0 24 24">
    <path d="M0 0h24v24H0z" fill="none" />
    <path
      d="M12 2C6.48 2 2 6.48 2 12s4.48 10 10 10 10-4.48 10-10S17.52 2 12 2zm1 15h-2v-2h2v2zm0-4h-2V7h2v6z"
    />
  </symbol>
  <symbol id="cancel" viewBox="0 0 24 24">
    <path d="M0 0h24v24H0z" fill="none" />
    <path
      d="M12 2C6.47 2 2 6.47 2 12s4.47 10 10 10 10-4.47 10-10S17.53 2 12 2zm5 13.59L15.59 17 12 13.41 8.41 17 7 15.59 10.59 12 7 8.41 8.41 7 12 10.59 15.59 7 17 8.41 13.41 12 17 15.59z"
    />
  </symbol>
  <symbol id="check" viewBox="0 0 24 24">
    <path d="M0 0h24v24H0z" fill="none" />
    <path d="M9 16.17L4.83 12l-1.42 1.41L9 19 21 7l-1.41-1.41z" />
  </symbol>
  <symbol id="check_circle" viewBox="0 0 24 24">
    <path d="M0 0h24v24H0z" fill="none" />
    <path
      d="M12 2C6.48 2 2 6.48 2 12s4.48 10 10 10 10-4.48 10-10S17.52 2 12 2zm-2 15-5-5 1.41-1.41L10 14.17l7.59-7.59L19 8l-9 9z"
    />
  </symbol>
  <symbol id="schedule" viewBox="0 0 24 24">
    <path d="M0 0h24v24H0z" fill="none" />
    <path
      d="M11.99 2C6.47 2 2 6.48 2 12s4.47 10 9.99 10C17.52 22 22 17.52 22 12S17.52 2 11.99 2zM12 20c-4.42 0-8-3.58-8-8s3.58-8 8-8 8 3.58 8 8-3.58 8-8 8z"
    />
    <path d="M12.5 7H11v6l5.25 3.15.75-1.23-4.5-2.67z" />
  </symbol>
  <symbol id="visibility" viewBox="0 0 24 24">
    <path d="M0 0h24v24H0z" fill="none" />
    <path
      d="M12 4.5C7 4.5 2.73 7.61 1 12c1.73 4.39 6 7.5 11 7.5s9.27-3.11 11-7.5c-1.73-4.39-6-7.5-11-7.5zM12 17c-2.76 0-5-2.24-5-5s2.24-5 5-5 5 2.24 5 5-2.24 5-5 5zm0-8c-1.66 0-3 1.34-3 3s1.34 3 3 3 3-1.34 3-3-1.34-3-3-3z"
    />
  </symbol>
  <symbol id="visibility_off" viewBox="0 0 24 24">
    <path
      d="M0 0h24v24H0zm0 0h24v24H0zm0 0h24v24H0zm0 0h24v24H0z"
      fill="none"
    />
    <path
      d="M12 7c2.76 0 5 2.24 5 5 0 .65-.13 1.26-.36 1.83l2.92 2.92c1.51-1.26 2.7-2.89 3.43-4.75-1.73-4.39-6-7.5-11-7.5-1.4 0-2.74.25-3.98.7l2.16 2.16C10.74 7.13 11.35 7 12 7zM2 4.27l2.28 2.28.46.46C3.08 8.3 1.78 10.02 1 12c1.73 4.39 6 7.5 11 7.5 1.55 0 3.03-.3 4.38-.84l.42.42L19.73 22 21 20.73 3.27 3 2 4.27zM7.53 9.8l1.55 1.55c-.05.21-.08.43-.08.65 0 1.66 1.34 3 3 3 .22 0 .44-.03.65-.08l1.55 1.55c-.67.33-1.41.53-2.2.53-2.76 0-5-2.24-5-5 0-.79.2-1.53.53-2.2zm4.31-.78l3.15 3.15.02-.16c0-1.66-1.34-3-3-3l-.17.01z"
    />
  </symbol>
  <symbol id="image" viewBox="0 0 24 24">
    <path d="M0 0h24v24H0z" fill="none" />
    <path
      d="M21 19V5c0-1.1-.9-2-2-2H5c-1.1 0-2 .9-2 2v14c0 1.1.9 2 2 2h14c1.1 0 2-.9 2-2zM8.5 13.5l2.5 3.01L14.5 12l4.5 6H5l3.5-4.5z"
    />
  </symbol>
  <symbol id="fa-solid fa-camera-retro" viewBox="0 0 512 512">
    <path
      d="M220.6 121.2L271.1 96 448 96v96H333.2c-21.9-15.1-48.5-24-77.2-24s-55.2 8.9-77.2 24H64V128H192c9.9 0 19.7-2.3 28.6-6.8zM0 128V416c0 35.3 28.7 64 64 64H448c35.3 0 64-28.7 64-64V96c0-35.3-28.7-64-64-64H271.1c-9.9 0-19.7 2.3-28.6 6.8L192 64H160V48c0-8.8-7.2-16-16-16H80c-8.8 0-16 7.2-16 16l0 16C28.7 64 0 92.7 0 128zM168 304a88 88 0 1 1 176 0 88 88 0 1 1 -176 0z"
    />
  </symbol>
  <symbol id="fa-solid fa-laptop-code" viewBox="0 0 640 512">
    <path
      d="M64 96c0-35.3 28.7-64 64-64H512c35.3 0 64 28.7 64 64V352H512V96H128V352H64V96zM0 403.2C0 392.6 8.6 384 19.2 384H620.8c10.6 0 19.2 8.6 19.2 19.2c0 42.4-34.4 76.8-76.8 76.8H76.8C34.4 480 0 445.6 0 403.2zM281 209l-31 31 31 31c9.4 9.4 9.4 24.6 0 33.9s-24.6 9.4-33.9 0l-48-48c-9.4-9.4-9.4-24.6 0-33.9l48-48c9.4-9.4 24.6-9.4 33.9 0s9.4 24.6 0 33.9zM393 175l48 48c9.4 9.4 9.4 24.6 0 33.9l-48 48c-9.4 9.4-24.6 9.4-33.9 0s-9.4-24.6 0-33.9l31-31-31-31c-9.4-9.4-9.4-24.6 0-33.9s24.6-9.4 33.9 0z"
    />
  </symbol>
  <symbol id="calendar_month" viewBox="0 0 24 24">
    <g><rect fill="none" height="24" width="24" /></g>
    <g>
      <path
        d="M19,4h-1V2h-2v2H8V2H6v2H5C3.89,4,3.01,4.9,3.01,6L3,20c0,1.1,0.89,2,2,2h14c1.1,0,2-0.9,2-2V6C21,4.9,20.1,4,19,4z M19,20 H5V10h14V20z M9,14H7v-2h2V14z M13,14h-2v-2h2V14z M17,14h-2v-2h2V14z M9,18H7v-2h2V18z M13,18h-2v-2h2V18z M17,18h-2v-2h2V18z"
      />
    </g>
  </symbol>
  <symbol id="toggle_off" viewBox="0 -960 960 960">
    <path
      d="M280-240q-100 0-170-70T40-480q0-100 70-170t170-70h400q100 0 170 70t70 170q0 100-70 170t-170 70H280Zm0-60h400q75 0 127.5-52.5T860-480q0-75-52.5-127.5T680-660H280q-75 0-127.5 52.5T100-480q0 75 52.5 127.5T280-300Zm-1.059-79Q321-379 350.5-408.441t29.5-71.5Q380-522 350.559-551.5t-71.5-29.5Q237-581 207.5-551.559t-29.5 71.5Q178-438 207.441-408.5t71.5 29.5ZM480-480Z"
    />
  </symbol>
  <symbol id="toggle_on" viewBox="0 -960 960 960">
    <path
      d="M280-240q-100 0-170-70T40-480q0-100 70-170t170-70h400q100 0 170 70t70 170q0 100-70 170t-170 70H280Zm0-60h400q75 0 127.5-52.5T860-480q0-75-52.5-127.5T680-660H280q-75 0-127.5 52.5T100-480q0 75 52.5 127.5T280-300Zm400.941-79Q723-379 752.5-408.441t29.5-71.5Q782-522 752.559-551.5t-71.5-29.5Q639-581 609.5-551.559t-29.5 71.5Q580-438 609.441-408.5t71.5 29.5ZM480-480Z"
    />
  </symbol>
  <symbol id="radio_button_unchecked" viewBox="0 -960 960 960">
    <path
      d="M480-80q-82 0-155-31.5t-127.5-86Q143-252 111.5-325T80-480q0-83 31.5-156t86-127Q252-817 325-848.5T480-880q83 0 156 31.5T763-763q54 54 85.5 127T880-480q0 82-31.5 155T763-197.5q-54 54.5-127 86T480-80Zm0-60q142 0 241-99.5T820-480q0-142-99-241t-241-99q-141 0-240.5 99T140-480q0 141 99.5 240.5T480-140Zm0-340Z"
    />
  </symbol>
  <symbol id="radio_button_checked" viewBox="0 -960 960 960">
    <path
      d="M480-294q78 0 132-54t54-132q0-78-54-132t-132-54q-78 0-132 54t-54 132q0 78 54 132t132 54Zm0 214q-82 0-155-31.5t-127.5-86Q143-252 111.5-325T80-480q0-83 31.5-156t86-127Q252-817 325-848.5T480-880q83 0 156 31.5T763-763q54 54 85.5 127T880-480q0 82-31.5 155T763-197.5q-54 54.5-127 86T480-80Zm0-60q142 0 241-99.5T820-480q0-142-99-241t-241-99q-141 0-240.5 99T140-480q0 141 99.5 240.5T480-140Zm0-340Z"
    />
  </symbol>
  <symbol id="check_box_outline_blank" viewBox="0 -960 960 960">
    <path
      d="M180-120q-24 0-42-18t-18-42v-600q0-24 18-42t42-18h600q24 0 42 18t18 42v600q0 24-18 42t-42 18H180Zm0-60h600v-600H180v600Z"
    />
  </symbol>
  <symbol id="check_box" viewBox="0 -960 960 960">
    <path
      d="m419-321 289-289-43-43-246 246-119-119-43 43 162 162ZM180-120q-24 0-42-18t-18-42v-600q0-24 18-42t42-18h600q24 0 42 18t18 42v600q0 24-18 42t-42 18H180Zm0-60h600v-600H180v600Zm0-600v600-600Z"
    />
  </symbol>
  <symbol id="check_circle" viewBox="0 -960 960 960">
    <path
      d="m421-298 283-283-46-45-237 237-120-120-45 45 165 166Zm59 218q-82 0-155-31.5t-127.5-86Q143-252 111.5-325T80-480q0-83 31.5-156t86-127Q252-817 325-848.5T480-880q83 0 156 31.5T763-763q54 54 85.5 127T880-480q0 82-31.5 155T763-197.5q-54 54.5-127 86T480-80Zm0-60q142 0 241-99.5T820-480q0-142-99-241t-241-99q-141 0-240.5 99T140-480q0 141 99.5 240.5T480-140Zm0-340Z"
    />
  </symbol>
</svg>
