<svg xmlns="http://www.w3.org/2000/svg">
  <symbol id="cooling-coil" viewBox="0 0 20 29" version="1.1" xmlns="http://www.w3.org/2000/svg">
    <g stroke="#000" transform="matrix(1, 0, 0, 1, -6.058399, -1.3729)">
      <rect height="27.246" width="17.868" x="7.066" y="2.3772" fill="currentColor" />
      <g transform="translate(24.9334,29.6232) rotate(180)">
        <rect class="cooling-coil" height="27.246" width="17.875" x="0" y="0" fill="currentColor" stroke="none" />
      </g>
      <rect height="27.246" width="17.868" x="7.066" y="2.3772" fill="none" />
      <path d="m7.322 2.3729 17.424 27.254" stroke-width="1px" fill="none" />
      <path d="m24.929 2.3734-17.642 27.182" stroke-width="1px" fill="none" />
    </g>
  </symbol>
  <symbol id="cursor" viewBox="0 0 320 512">
    <path
      d="M302.189 329.126H196.105l55.831 135.993c3.889 9.428-.555 19.999-9.444 23.999l-49.165 21.427c-9.165 4-19.443-.571-23.332-9.714l-53.053-129.136-86.664 89.138C18.729 472.71 0 463.554 0 447.977V18.299C0 1.899 19.921-6.096 30.277 5.443l284.412 292.542c11.472 11.179 3.007 31.141-12.5 31.141z"
      fill="currentColor" />
  </symbol>
  <symbol id="damper" viewBox="0 0 13.431694 28.950886" version="1.1">
    <rect class="damper" height="27.5" width="12" stroke="#000000" stroke-miterlimit="4" x="0.69481522" y="0.67645228"
      stroke-dasharray="none" stroke-width="1" fill="currentColor" />
    <g stroke="#000000" stroke-width="1.5px" transform="translate(-9.3051848,-1.5735477)">
      <g transform="translate(16,7)">
        <line x1="-5" x2="5" y1="0" y2="0" transform="rotate(-35)" class="damper-line" />
      </g>
      <g transform="translate(16,13)">
        <line x1="-5" x2="5" y1="0" y2="0" transform="rotate(-35)" class="damper-line" />
      </g>
      <g transform="translate(16,19)">
        <line x1="-5" x2="5" y1="0" y2="0" transform="rotate(-35)" class="damper-line" />
      </g>
      <g transform="translate(16,25)">
        <line x1="-5" x2="5" y1="0" y2="0" transform="rotate(-35)" class="damper-line" />
      </g>
    </g>
    <g stroke-linejoin="miter" transform="matrix(1.2268237,0,0,0.94845469,-13.299764,-1.1862851)" stroke="#000000"
      stroke-linecap="butt" fill="none">
      <path stroke-width="1.06273px" d="m 16.298,2.2402 v 28.442" />
    </g>
  </symbol>
  <symbol id="duct" viewBox="0 0 226 75" version="1.1" xmlns="http://www.w3.org/2000/svg"
    xmlns:bx="https://boxy-svg.com">
    <g transform="matrix(0.999094, 0, 0, 1, -225.698334, 3.357005)" bx:origin="0.5 0.5">
      <path
        d="M 225.903 35.245 L 250 71.643 L 452.108 71.643 L 435.361 35.245 L 452.108 -3.408 L 250 -1.153 L 225.903 35.245 Z"
        fill="currentColor" />
    </g>
  </symbol>
  <symbol id="fan" version="1.1" xmlns="http://www.w3.org/2000/svg" xmlns:xlink="http://www.w3.org/1999/xlink" x="0px"
    y="0px" viewBox="0 0 1000 1000" enable-background="new 0 0 1000 1000" xml:space="preserve">
    <g>
      <g transform="translate(0.000000,512.000000) scale(0.100000,-0.100000)">
        <path fill="currentColor"
          d="M4512.5,5012.2c-955.8-78.7-1591.1-449.1-1950-1132.4l-99.8-193.8l21.1-201.5c71-623.8,393.5-1307,930.8-1969.2c90.2-113.2,165.1-209.2,165.1-215c0-5.8-38.4-61.4-84.4-124.8c-46.1-63.3-88.3-124.8-92.1-136.3c-3.8-13.4-587.3,301.3-1389.5,750.4C1255.5,2213.9,627.9,2565.1,622.1,2569c-21.1,11.5-295.6-543.2-372.3-748.5c-117.1-318.6-151.6-499-149.7-817.6c0-220.7,9.6-309,40.3-426.1c61.4-226.5,147.8-416.5,278.3-614.2c109.4-163.1,128.6-184.2,243.7-239.9C1255.5-572.9,2171-647.7,3170.9-484.6l78.7,13.4l69.1-147.8c38.4-82.5,69.1-155.4,69.1-161.2c0-7.7-621.8-366.6-1381.9-798.4C1245.9-2010.4,624-2369.3,624-2377c0-28.8,330.1-506.7,451-648.7c499-598.8,1101.7-880.9,1794.5-838.7l201.5,11.5l163.1,109.4c209.2,143.9,512.4,443.3,692.9,687.1c247.6,333.9,497.1,794.6,652.5,1205.3c55.7,149.7,67.2,168.9,103.6,159.3c23-5.8,103.6-17.3,178.5-23l138.2-13.4v-1531.6v-1533.5h92.1c205.4,0,621.8,42.2,842.6,86.4c712,143.9,1199.5,489.4,1500.9,1067.1l101.7,191.9l-21.1,195.8c-23,213.1-88.3,479.8-168.9,694.8c-138.2,372.3-443.3,882.9-765.8,1284c-117.1,145.8-163.1,214.9-149.7,232.2c9.6,15.4,51.8,76.8,92.1,138.2c42.2,61.4,76.8,113.2,80.6,117.1c1.9,3.8,621.9-339.7,1380-763.9c756.2-424.2,1387.6-765.8,1401.1-760c44.1,17.3,326.3,610.3,399.2,836.8c101.7,322.4,117.1,422.2,115.2,719.7c0,209.2-9.6,301.3-40.3,416.5c-61.4,224.6-147.8,416.5-278.3,614.2c-109.4,165-128.6,182.3-243.8,239.9c-274.5,134.3-658.3,234.1-1074.8,276.4c-276.4,28.8-846.4,13.4-1170.8-32.6c-370.4-51.8-337.8-61.4-416.5,113.2c-38.4,80.6-65.2,151.6-61.4,155.5c3.8,5.8,625.7,358.9,1380,788.8c754.3,429.9,1376.1,785,1380,788.8c11.5,11.5-168.9,289.8-316.7,489.4c-537.4,719.7-1151.6,1046-1907.8,1007.6l-220.7-11.5l-157.4-107.5c-524-355.1-1015.3-1034.5-1332-1846.3c-72.9-188.1-90.2-215-122.8-207.3c-21.1,5.8-101.7,15.4-176.6,23l-140.1,13.4v1531.6v1533.5l-147.8-1.9C4769.7,5029.5,4616.1,5021.8,4512.5,5012.2z M5224.5,1014.4c155.4-42.2,272.5-107.5,399.2-226.5c305.1-284,381.9-706.3,199.6-1084.4c-24.9-49.9-105.6-153.6-180.4-228.4c-203.5-205.4-418.4-289.8-696.7-272.5c-656.4,42.2-1055.6,719.7-775.4,1318.5c63.3,136.3,286,360.8,416.5,424.2C4786.9,1039.3,5032.6,1066.2,5224.5,1014.4z" />
      </g>
    </g>
  </symbol>
  <symbol id="filter" viewBox="0 0 13 29">
    <g stroke="#000" stroke-width="1" transform="matrix(1, 0, 0, 1, -9.37, -1.3252)">
      <rect height="27.35" width="11.26" y="2.3252" x="10.37" fill="currentColor" />
      <path stroke-linejoin="miter"
        d="m11.892,2.6997,8.2165,4.4334-8.2165,4.4334,8.2165,4.4334-8.2165,4.4334,8.2165,4.4334-8.2165,4.4334"
        stroke-linecap="round" stroke-miterlimit="4" stroke-dasharray="none" stroke-width="1.2694304" fill="none" />
    </g>
  </symbol>
  <symbol id="heating-coil" viewBox="0 0 19.526541 28.758413" version="1.1" xmlns:xlink="http://www.w3.org/1999/xlink"
    xmlns="http://www.w3.org/2000/svg" xmlns:svg="http://www.w3.org/2000/svg">
    <defs>
      <rect id="heating-coil-rect" height="27.246" width="17.868" x="0" y="0" />
    </defs>
    <g stroke="#000000" transform="translate(-6.129206,-1.5327875)">
      <use xlink:href="#heating-coil-rect" fill="currentColor" stroke="none" x="7.066" y="2.3771999" />
      <g transform="rotate(180,12.4667,14.8116)">
        <use xlink:href="#heating-coil-rect" class="heating-coil" x="0" y="0" fill="currentColor" stroke="none" />
      </g>
      <use xlink:href="#heating-coil-rect" stroke-width="1" fill="none" x="7.066" y="2.3771999" />
      <path stroke-linejoin="miter" d="M 24.929,2.3734 7.2868,29.555" stroke="#000000" stroke-linecap="butt"
        stroke-width="1px" fill="none" />
    </g>
  </symbol>
  <symbol id="humidifier" viewBox="0 0 18 25" version="1.1" xmlns="http://www.w3.org/2000/svg">
    <g class="duct-humidifier" transform="matrix(1, 0, 0, 1, -3.324199, -7.877)">
      <g transform="translate(0 5.1505)">
        <g stroke="#000" stroke-width=".5" class="water-drops" fill="currentColor">
          <path
            d="m14.291 6.7851c0.46542-0.0958 0.69019-0.27099 0.99164-0.49615 0.10429-0.07789 0.23068-0.12587 0.37088-0.12587 0.34281 0 0.62078 0.27918 0.62078 0.62199s-0.27796 0.61956-0.62078 0.61956c-0.13834 0-0.26988-0.0428-0.37088-0.1222-0.29895-0.23498-0.52493-0.40696-0.99168-0.49732z" />
          <g transform="translate(0 .17167)">
            <path
              d="m18.179 5.3612c0.46542-0.0958 0.69019-0.27099 0.99164-0.49615 0.10429-0.07789 0.23068-0.12587 0.37088-0.12587 0.34281 0 0.62078 0.27918 0.62078 0.62199s-0.27796 0.61956-0.62078 0.61956c-0.13834 0-0.26988-0.0428-0.37088-0.1222-0.29895-0.23498-0.52493-0.40696-0.99168-0.49732z" />
            <path
              d="m18.234 7.8656c0.46542-0.0958 0.69019-0.27099 0.99164-0.49615 0.10429-0.07789 0.23068-0.12587 0.37088-0.12587 0.34281 0 0.62078 0.27918 0.62078 0.62199s-0.27796 0.61956-0.62078 0.61956c-0.13834 0-0.26988-0.0428-0.37088-0.1222-0.29895-0.23498-0.52493-0.40696-0.99168-0.49732z" />
          </g>
        </g>
        <g transform="translate(0,8)">
          <g stroke="#000" stroke-width=".5" class="water-drops water-drops-2" fill="currentColor">
            <path
              d="m14.291 6.7851c0.46542-0.0958 0.69019-0.27099 0.99164-0.49615 0.10429-0.07789 0.23068-0.12587 0.37088-0.12587 0.34281 0 0.62078 0.27918 0.62078 0.62199s-0.27796 0.61956-0.62078 0.61956c-0.13834 0-0.26988-0.0428-0.37088-0.1222-0.29895-0.23498-0.52493-0.40696-0.99168-0.49732z" />
            <g transform="translate(0 .17167)">
              <path
                d="m18.179 5.3612c0.46542-0.0958 0.69019-0.27099 0.99164-0.49615 0.10429-0.07789 0.23068-0.12587 0.37088-0.12587 0.34281 0 0.62078 0.27918 0.62078 0.62199s-0.27796 0.61956-0.62078 0.61956c-0.13834 0-0.26988-0.0428-0.37088-0.1222-0.29895-0.23498-0.52493-0.40696-0.99168-0.49732z" />
              <path
                d="m18.234 7.8656c0.46542-0.0958 0.69019-0.27099 0.99164-0.49615 0.10429-0.07789 0.23068-0.12587 0.37088-0.12587 0.34281 0 0.62078 0.27918 0.62078 0.62199s-0.27796 0.61956-0.62078 0.61956c-0.13834 0-0.26988-0.0428-0.37088-0.1222-0.29895-0.23498-0.52493-0.40696-0.99168-0.49732z" />
            </g>
          </g>
        </g>
      </g>
      <path class="humidifier-body"
        d="m4.3242 8.877v22.586h4.0059v-9.883h4.3789v-2.617h-4.3789v-5.721h4.3789v-2.617h-4.3789v-1.748h-4.0059z"
        stroke="#000" fill="currentColor" />
    </g>
  </symbol>
  <symbol id="temperature" viewBox="0 0 10.423067 22.852614">
    <g stroke="#000000" stroke-width="1px" transform="translate(-10.804626,-9.2243756)">
      <rect height="14.505" width="2.901" y="9.9127998" x="14.557" fill="#ffff00" />
      <path stroke-width="1.2px" transform="matrix(0.74098,0,0,0.74098,7.3047,15.679)" fill="currentColor"
        d="m 17.949,15.898 -3.1021,5.373 H 8.6427 L 5.5406,15.898 8.6427,10.525 h 6.2042 z" />
    </g>
    <g transform="translate(-1.2033861,-8.1217684)">
      <circle r="0.77312505" cy="28.129852" cx="6.4061227" style="
          fill: none;
          fill-opacity: 1;
          stroke: #000000;
          stroke-width: 0.5;
          stroke-miterlimit: 4;
          stroke-dasharray: none;
          stroke-opacity: 1;
        " />
      <path d="M 6.4061205,27.157211 V 23.65349" style="
          fill: none;
          fill-rule: evenodd;
          stroke: #000000;
          stroke-width: 0.5;
          stroke-linecap: butt;
          stroke-linejoin: miter;
          stroke-miterlimit: 4;
          stroke-dasharray: none;
          stroke-opacity: 1;
        " />
    </g>
  </symbol>

  <symbol id="power_settings_new" viewBox="0 0 24 24">
    <path d="M0 0h24v24H0z" fill="none" />
    <path
      d="M13 3h-2v10h2V3zm4.83 2.17l-1.42 1.42C17.99 7.86 19 9.81 19 12c0 3.87-3.13 7-7 7s-7-3.13-7-7c0-2.19 1.01-4.14 2.58-5.42L6.17 5.17C4.23 6.82 3 9.26 3 12c0 4.97 4.03 9 9 9s9-4.03 9-9c0-2.74-1.23-5.18-3.17-6.83z" />
  </symbol>
  <symbol id="grid_view" viewBox="0 0 24 24">
    <g fill-rule="evenodd">
      <path d="M0 0h24v24H0z" fill="none" />
      <path
        d="M3 3v8h8V3H3zm6 6H5V5h4v4zm-6 4v8h8v-8H3zm6 6H5v-4h4v4zm4-16v8h8V3h-8zm6 6h-4V5h4v4zm-6 4v8h8v-8h-8zm6 6h-4v-4h4v4z" />
    </g>
  </symbol>
  <symbol id="question_mark" enable-background="new 0 0 24 24" viewBox="0 0 24 24">
    <g>
      <rect fill="none" height="24" width="24" />
    </g>
    <g>
      <path
        d="M11.07,12.85c0.77-1.39,2.25-2.21,3.11-3.44c0.91-1.29,0.4-3.7-2.18-3.7c-1.69,0-2.52,1.28-2.87,2.34L6.54,6.96 C7.25,4.83,9.18,3,11.99,3c2.35,0,3.96,1.07,4.78,2.41c0.7,1.15,1.11,3.3,0.03,4.9c-1.2,1.77-2.35,2.31-2.97,3.45 c-0.25,0.46-0.35,0.76-0.35,2.24h-2.89C10.58,15.22,10.46,13.95,11.07,12.85z M14,20c0,1.1-0.9,2-2,2s-2-0.9-2-2c0-1.1,0.9-2,2-2 S14,18.9,14,20z" />
    </g>
  </symbol>
  <symbol id="help" viewBox="0 0 24 24">
    <path d="M0 0h24v24H0z" fill="none" />
    <path
      d="M12 2C6.48 2 2 6.48 2 12s4.48 10 10 10 10-4.48 10-10S17.52 2 12 2zm1 17h-2v-2h2v2zm2.07-7.75l-.9.92C13.45 12.9 13 13.5 13 15h-2v-.5c0-1.1.45-2.1 1.17-2.83l1.24-1.26c.37-.36.59-.86.59-1.41 0-1.1-.9-2-2-2s-2 .9-2 2H8c0-2.21 1.79-4 4-4s4 1.79 4 4c0 .88-.36 1.68-.93 2.25z" />
  </symbol>
  <symbol id="bolt" viewBox="0 0 24 24">
    <path
      d="M11 21h-1l1-7H7.5c-.58 0-.57-.32-.38-.66.19-.34.05-.08.07-.12C8.48 10.94 10.42 7.54 13 3h1l-1 7h3.5c.49 0 .56.33.47.51l-.07.15C12.96 17.55 11 21 11 21z" />
  </symbol>
  <symbol id="error" viewBox="0 0 24 24">
    <path d="M0 0h24v24H0z" fill="none" />
    <path d="M12 2C6.48 2 2 6.48 2 12s4.48 10 10 10 10-4.48 10-10S17.52 2 12 2zm1 15h-2v-2h2v2zm0-4h-2V7h2v6z" />
  </symbol>
  <symbol id="cancel" viewBox="0 0 24 24">
    <path d="M0 0h24v24H0z" fill="none" />
    <path
      d="M12 2C6.47 2 2 6.47 2 12s4.47 10 10 10 10-4.47 10-10S17.53 2 12 2zm5 13.59L15.59 17 12 13.41 8.41 17 7 15.59 10.59 12 7 8.41 8.41 7 12 10.59 15.59 7 17 8.41 13.41 12 17 15.59z" />
  </symbol>
  <symbol id="check" viewBox="0 0 24 24">
    <path d="M0 0h24v24H0z" fill="none" />
    <path d="M9 16.17L4.83 12l-1.42 1.41L9 19 21 7l-1.41-1.41z" />
  </symbol>
  <symbol id="check_circle" viewBox="0 0 24 24">
    <path d="M0 0h24v24H0z" fill="none" />
    <path
      d="M12 2C6.48 2 2 6.48 2 12s4.48 10 10 10 10-4.48 10-10S17.52 2 12 2zm-2 15-5-5 1.41-1.41L10 14.17l7.59-7.59L19 8l-9 9z" />
  </symbol>
  <symbol id="schedule" viewBox="0 0 24 24">
    <path d="M0 0h24v24H0z" fill="none" />
    <path
      d="M11.99 2C6.47 2 2 6.48 2 12s4.47 10 9.99 10C17.52 22 22 17.52 22 12S17.52 2 11.99 2zM12 20c-4.42 0-8-3.58-8-8s3.58-8 8-8 8 3.58 8 8-3.58 8-8 8z" />
    <path d="M12.5 7H11v6l5.25 3.15.75-1.23-4.5-2.67z" />
  </symbol>
  <symbol id="visibility" viewBox="0 0 24 24">
    <path d="M0 0h24v24H0z" fill="none" />
    <path
      d="M12 4.5C7 4.5 2.73 7.61 1 12c1.73 4.39 6 7.5 11 7.5s9.27-3.11 11-7.5c-1.73-4.39-6-7.5-11-7.5zM12 17c-2.76 0-5-2.24-5-5s2.24-5 5-5 5 2.24 5 5-2.24 5-5 5zm0-8c-1.66 0-3 1.34-3 3s1.34 3 3 3 3-1.34 3-3-1.34-3-3-3z" />
  </symbol>
  <symbol id="visibility_off" viewBox="0 0 24 24">
    <path d="M0 0h24v24H0zm0 0h24v24H0zm0 0h24v24H0zm0 0h24v24H0z" fill="none" />
    <path
      d="M12 7c2.76 0 5 2.24 5 5 0 .65-.13 1.26-.36 1.83l2.92 2.92c1.51-1.26 2.7-2.89 3.43-4.75-1.73-4.39-6-7.5-11-7.5-1.4 0-2.74.25-3.98.7l2.16 2.16C10.74 7.13 11.35 7 12 7zM2 4.27l2.28 2.28.46.46C3.08 8.3 1.78 10.02 1 12c1.73 4.39 6 7.5 11 7.5 1.55 0 3.03-.3 4.38-.84l.42.42L19.73 22 21 20.73 3.27 3 2 4.27zM7.53 9.8l1.55 1.55c-.05.21-.08.43-.08.65 0 1.66 1.34 3 3 3 .22 0 .44-.03.65-.08l1.55 1.55c-.67.33-1.41.53-2.2.53-2.76 0-5-2.24-5-5 0-.79.2-1.53.53-2.2zm4.31-.78l3.15 3.15.02-.16c0-1.66-1.34-3-3-3l-.17.01z" />
  </symbol>
  <symbol id="image" viewBox="0 0 24 24">
    <path d="M0 0h24v24H0z" fill="none" />
    <path
      d="M21 19V5c0-1.1-.9-2-2-2H5c-1.1 0-2 .9-2 2v14c0 1.1.9 2 2 2h14c1.1 0 2-.9 2-2zM8.5 13.5l2.5 3.01L14.5 12l4.5 6H5l3.5-4.5z" />
  </symbol>
  <symbol id="fa-solid fa-camera-retro" viewBox="0 0 512 512">
    <path
      d="M220.6 121.2L271.1 96 448 96v96H333.2c-21.9-15.1-48.5-24-77.2-24s-55.2 8.9-77.2 24H64V128H192c9.9 0 19.7-2.3 28.6-6.8zM0 128V416c0 35.3 28.7 64 64 64H448c35.3 0 64-28.7 64-64V96c0-35.3-28.7-64-64-64H271.1c-9.9 0-19.7 2.3-28.6 6.8L192 64H160V48c0-8.8-7.2-16-16-16H80c-8.8 0-16 7.2-16 16l0 16C28.7 64 0 92.7 0 128zM168 304a88 88 0 1 1 176 0 88 88 0 1 1 -176 0z" />
  </symbol>
  <symbol id="fa-solid fa-laptop-code" viewBox="0 0 640 512">
    <path
      d="M64 96c0-35.3 28.7-64 64-64H512c35.3 0 64 28.7 64 64V352H512V96H128V352H64V96zM0 403.2C0 392.6 8.6 384 19.2 384H620.8c10.6 0 19.2 8.6 19.2 19.2c0 42.4-34.4 76.8-76.8 76.8H76.8C34.4 480 0 445.6 0 403.2zM281 209l-31 31 31 31c9.4 9.4 9.4 24.6 0 33.9s-24.6 9.4-33.9 0l-48-48c-9.4-9.4-9.4-24.6 0-33.9l48-48c9.4-9.4 24.6-9.4 33.9 0s9.4 24.6 0 33.9zM393 175l48 48c9.4 9.4 9.4 24.6 0 33.9l-48 48c-9.4 9.4-24.6 9.4-33.9 0s-9.4-24.6 0-33.9l31-31-31-31c-9.4-9.4-9.4-24.6 0-33.9s24.6-9.4 33.9 0z" />
  </symbol>
  <symbol id="calendar_month" viewBox="0 0 24 24">
    <g>
      <rect fill="none" height="24" width="24" />
    </g>
    <g>
      <path
        d="M19,4h-1V2h-2v2H8V2H6v2H5C3.89,4,3.01,4.9,3.01,6L3,20c0,1.1,0.89,2,2,2h14c1.1,0,2-0.9,2-2V6C21,4.9,20.1,4,19,4z M19,20 H5V10h14V20z M9,14H7v-2h2V14z M13,14h-2v-2h2V14z M17,14h-2v-2h2V14z M9,18H7v-2h2V18z M13,18h-2v-2h2V18z M17,18h-2v-2h2V18z" />
    </g>
  </symbol>
  <symbol id="toggle_off" viewBox="0 -960 960 960">
    <path
      d="M280-240q-100 0-170-70T40-480q0-100 70-170t170-70h400q100 0 170 70t70 170q0 100-70 170t-170 70H280Zm0-60h400q75 0 127.5-52.5T860-480q0-75-52.5-127.5T680-660H280q-75 0-127.5 52.5T100-480q0 75 52.5 127.5T280-300Zm-1.059-79Q321-379 350.5-408.441t29.5-71.5Q380-522 350.559-551.5t-71.5-29.5Q237-581 207.5-551.559t-29.5 71.5Q178-438 207.441-408.5t71.5 29.5ZM480-480Z" />
  </symbol>
  <symbol id="toggle_off1" viewBox="0 0 32 32">
    <path
      d="M9.333 24q-3.333 0-5.667-2.333T1.333 16q0-3.333 2.333-5.667T9.333 8h13.334q3.333 0 5.667 2.333T30.667 16q0 3.333-2.333 5.667T22.667 24H9.333Zm0-2h13.334q2.5 0 4.25-1.75T28.667 16q0-2.5-1.75-4.25T22.667 10H9.333q-2.5 0-4.25 1.75T3.333 16q0 2.5 1.75 4.25T9.333 22Zm-0.035-2.633q1.401 0 2.401-1.001t1-2.383q0-1.401-1-2.384t-2.383-0.983q-1.401 0-2.384 0.983t-0.983 2.384q0 1.382 0.983 2.383t2.366 1.001ZM16 16Z" />
  </symbol>
  <symbol id="toggle_on" viewBox="0 -960 960 960">
    <path
      d="M280-240q-100 0-170-70T40-480q0-100 70-170t170-70h400q100 0 170 70t70 170q0 100-70 170t-170 70H280Zm0-60h400q75 0 127.5-52.5T860-480q0-75-52.5-127.5T680-660H280q-75 0-127.5 52.5T100-480q0 75 52.5 127.5T280-300Zm400.941-79Q723-379 752.5-408.441t29.5-71.5Q782-522 752.559-551.5t-71.5-29.5Q639-581 609.5-551.559t-29.5 71.5Q580-438 609.441-408.5t71.5 29.5ZM480-480Z" />
  </symbol>
  <symbol id="toggle_on1" viewBox="0 0 32 32">
    <path
      d="M9.333 24q-3.333 0-5.667-2.333T1.333 16q0-3.333 2.333-5.667T9.333 8h13.334q3.333 0 5.667 2.333T30.667 16q0 3.333-2.333 5.667T22.667 24H9.333Zm0-2h13.334q2.5 0 4.25-1.75T28.667 16q0-2.5-1.75-4.25T22.667 10H9.333q-2.5 0-4.25 1.75T3.333 16q0 2.5 1.75 4.25T9.333 22Zm13.369-2.633q1.401 0 2.401-1.001t1-2.383q0-1.401-1-2.384t-2.383-0.983q-1.401 0-2.384 0.983t-0.983 2.384q0 1.382 0.983 2.383t2.366 1.001ZM16 16Z" />
  </symbol>
  <symbol id="radio_button_unchecked" viewBox="0 -960 960 960">
    <path
      d="M480-80q-82 0-155-31.5t-127.5-86Q143-252 111.5-325T80-480q0-83 31.5-156t86-127Q252-817 325-848.5T480-880q83 0 156 31.5T763-763q54 54 85.5 127T880-480q0 82-31.5 155T763-197.5q-54 54.5-127 86T480-80Zm0-60q142 0 241-99.5T820-480q0-142-99-241t-241-99q-141 0-240.5 99T140-480q0 141 99.5 240.5T480-140Zm0-340Z" />
  </symbol>
  <symbol id="radio_button_checked" viewBox="0 -960 960 960">
    <path
      d="M480-294q78 0 132-54t54-132q0-78-54-132t-132-54q-78 0-132 54t-54 132q0 78 54 132t132 54Zm0 214q-82 0-155-31.5t-127.5-86Q143-252 111.5-325T80-480q0-83 31.5-156t86-127Q252-817 325-848.5T480-880q83 0 156 31.5T763-763q54 54 85.5 127T880-480q0 82-31.5 155T763-197.5q-54 54.5-127 86T480-80Zm0-60q142 0 241-99.5T820-480q0-142-99-241t-241-99q-141 0-240.5 99T140-480q0 141 99.5 240.5T480-140Zm0-340Z" />
  </symbol>
  <symbol id="check_box_outline_blank" viewBox="0 -960 960 960">
    <path
      d="M180-120q-24 0-42-18t-18-42v-600q0-24 18-42t42-18h600q24 0 42 18t18 42v600q0 24-18 42t-42 18H180Zm0-60h600v-600H180v600Z" />
  </symbol>
  <symbol id="check_box" viewBox="0 -960 960 960">
    <path
      d="m419-321 289-289-43-43-246 246-119-119-43 43 162 162ZM180-120q-24 0-42-18t-18-42v-600q0-24 18-42t42-18h600q24 0 42 18t18 42v600q0 24-18 42t-42 18H180Zm0-60h600v-600H180v600Zm0-600v600-600Z" />
  </symbol>
  <symbol id="check_circle" viewBox="0 -960 960 960">
    <path
      d="m421-298 283-283-46-45-237 237-120-120-45 45 165 166Zm59 218q-82 0-155-31.5t-127.5-86Q143-252 111.5-325T80-480q0-83 31.5-156t86-127Q252-817 325-848.5T480-880q83 0 156 31.5T763-763q54 54 85.5 127T880-480q0 82-31.5 155T763-197.5q-54 54.5-127 86T480-80Zm0-60q142 0 241-99.5T820-480q0-142-99-241t-241-99q-141 0-240.5 99T140-480q0 141 99.5 240.5T480-140Zm0-340Z" />
  </symbol>
  <symbol id="led" viewBox="-10 -5 35.456 39.618">
    <rect x="2.5099" y="20.382" width="2.1514" height="9.8273" fill="#8c8c8c"></rect>
    <path
      d="m12.977 30.269c0-1.1736-0.86844-2.5132-1.8916-3.4024-0.41616-0.3672-1.1995-1.0015-1.1995-1.4249v-5.4706h-2.1614v5.7802c0 1.0584 0.94752 1.8785 1.9462 2.7482 0.44424 0.37584 1.3486 1.2496 1.3486 1.7694"
      fill="#8c8c8c"></path>

    <path
      d="m14.173 13.001v-5.9126c0-3.9132-3.168-7.0884-7.0855-7.0884-3.9125 0-7.0877 3.1694-7.0877 7.0884v13.649c1.4738 1.651 4.0968 2.7526 7.0877 2.7526 4.6195 0 8.3686-2.6179 8.3686-5.8594v-1.5235c-7.4e-4 -1.1426-0.47444-2.2039-1.283-3.1061z"
      opacity=".3"></path>
    <path
      d="m14.173 13.001v-5.9126c0-3.9132-3.168-7.0884-7.0855-7.0884-3.9125 0-7.0877 3.1694-7.0877 7.0884v13.649c1.4738 1.651 4.0968 2.7526 7.0877 2.7526 4.6195 0 8.3686-2.6179 8.3686-5.8594v-1.5235c-7.4e-4 -1.1426-0.47444-2.2039-1.283-3.1061z"
      fill="#e6e6e6" opacity=".5"></path>
    <path
      d="m14.173 13.001v3.1054c0 2.7389-3.1658 4.9651-7.0855 4.9651-3.9125 2e-5 -7.0877-2.219-7.0877-4.9651v4.6296c1.4738 1.6517 4.0968 2.7526 7.0877 2.7526 4.6195 0 8.3686-2.6179 8.3686-5.8586l-4e-5 -1.5235c-7e-4 -1.1419-0.4744-2.2032-1.283-3.1054z"
      fill="#d1d1d1" opacity=".9"></path>

    <path
      d="m14.173 13.001v-5.9126c0-3.9132-3.168-7.0884-7.0855-7.0884-3.9125 0-7.0877 3.1694-7.0877 7.0884v13.649c1.4738 1.651 4.0968 2.7526 7.0877 2.7526 4.6195 0 8.3686-2.6179 8.3686-5.8594v-1.5235c-7.4e-4 -1.1426-0.47444-2.2039-1.283-3.1061z"
      opacity=".65" fill="currentColor"></path>
    <g fill="#ffffff">
      <path
        d="m10.388 3.7541 1.4364-0.2736c-0.84168-1.1318-2.0822-1.9577-3.5417-2.2385l0.25416 1.0807c0.76388 0.27072 1.4068 0.78048 1.8511 1.4314z"
        opacity=".5"></path>
      <path
        d="m0.76824 19.926v1.5199c0.64872 0.5292 1.4335 0.97632 2.3076 1.3169v-1.525c-0.8784-0.33624-1.6567-0.78194-2.3076-1.3118z"
        opacity=".5"></path>
      <path
        d="m11.073 20.21c-0.2556 0.1224-0.52992 0.22968-0.80568 0.32976-0.05832 0.01944-0.11736 0.04032-0.17784 0.05832-0.56376 0.17928-1.1614 0.31896-1.795 0.39456-0.07488 0.0094-0.1512 0.01872-0.22464 0.01944-0.3204 0.03024-0.64368 0.05832-0.97056 0.05832-0.14832 0-0.30744-0.01512-0.4716-0.02376-1.2002-0.05688-2.3306-0.31464-3.2976-0.73944l-2e-5 -8.3895v-4.8254c0-1.471 0.84816-2.7295 2.0736-3.3494l-0.02232-0.05328-1.2478-1.512c-1.6697 1.003-2.79 2.8224-2.79 4.9118v11.905c-0.04968-0.04968-0.30816-0.30888-0.48024-0.52992l-0.30744 0.6876c1.4011 1.4818 3.8088 2.4617 6.5426 2.4617 1.6798 0 3.2371-0.37368 4.5115-1.0022l-0.52704-0.40896-0.01006 0.0072z"
        opacity=".5"></path>
    </g>
  </symbol>
  <symbol id="boiler" xmlns="http://www.w3.org/2000/svg" viewBox="0 0 32 32" version="1.1">
    <path style="
        fill: currentColor;
        fill-opacity: 1;
        fill-rule: nonzero;
        stroke: #000000;
        stroke-width: 1;
        stroke-linecap: butt;
        stroke-linejoin: miter;
        stroke-miterlimit: 4;
        stroke-dasharray: none;
        stroke-opacity: 1;
      " d="m 2,15 8,-7 0,-7 12,0 0,7 8,7 0,16 -28,0 z"></path>
  </symbol>
  <symbol viewBox="0 0 10 22" xmlns:osb="http://www.openswatchbook.org/uri/2009/osb"
    xmlns:dc="http://purl.org/dc/elements/1.1/" xmlns:cc="http://creativecommons.org/ns#"
    xmlns:rdf="http://www.w3.org/1999/02/22-rdf-syntax-ns#" xmlns:svg="http://www.w3.org/2000/svg"
    xmlns="http://www.w3.org/2000/svg" xmlns:xlink="http://www.w3.org/1999/xlink"
    xmlns:sodipodi="http://sodipodi.sourceforge.net/DTD/sodipodi-0.dtd" id="enthalpy">
    <defs>
      <linearGradient id="linearGradient4194">
        <stop style="stop-color: #ffff00; stop-opacity: 1" offset="0" />
        <stop offset="0.3598454" style="stop-color: #ffff00; stop-opacity: 1" />
        <stop offset="0.59441435" style="stop-color: #00ffff; stop-opacity: 1" />
        <stop style="stop-color: #00ffff; stop-opacity: 1" offset="1" />
      </linearGradient>
      <linearGradient xlink:href="#linearGradient4194" id="linearGradient4219" x1="15.955305" y1="9.504283"
        x2="16.127491" y2="24.826317" gradientUnits="userSpaceOnUse"
        gradientTransform="translate(-10.896808,-9.4127998)" />
    </defs>
    <rect style="
        fill: url(#linearGradient4219);
        fill-opacity: 1;
        fill-rule: nonzero;
        stroke: #000000;
        stroke-width: 1px;
      " x="3.660192" y="0.5" width="2.901" height="14.505" />
    <path style="fill: currentColor; stroke: #000000; stroke-width: 0.889176px"
      d="m 9.7077419,18.0463 -2.298594,3.981286 H 2.8119599 L 0.51336587,18.0463 2.8119599,14.065014 h 4.597188 z" />
    <g transform="translate(-10.733726,-9.4127998)">
      <g transform="translate(8.1630559,0.95878887)">
        <circle style="
            fill: none;
            fill-opacity: 1;
            stroke: #000000;
            stroke-width: 0.5;
            stroke-miterlimit: 4;
            stroke-dasharray: none;
            stroke-opacity: 1;
          " cx="6.4061227" cy="28.129852" r="0.77312505" />
        <path style="
            fill: none;
            fill-rule: evenodd;
            stroke: #000000;
            stroke-width: 0.5;
            stroke-linecap: butt;
            stroke-linejoin: miter;
            stroke-miterlimit: 4;
            stroke-dasharray: none;
            stroke-opacity: 1;
          " d="M 6.4061205,27.157211 V 23.65349" />
      </g>
      <path style="
          fill: none;
          stroke: #000000;
          stroke-width: 0.5;
          stroke-miterlimit: 4;
          stroke-dasharray: none;
          stroke-opacity: 1;
        "
        d="m 17.270488,24.668533 c 0.0958,0.465416 0.27099,0.690186 0.496151,0.991638 0.07789,0.10429 0.125868,0.230683 0.125868,0.370878 0,0.342813 -0.279183,0.620776 -0.621988,0.620776 -0.342814,0 -0.619564,-0.277963 -0.619564,-0.620776 0,-0.138342 0.0428,-0.269876 0.1222,-0.370878 0.234976,-0.29895 0.406955,-0.524932 0.497324,-0.991677 z" />
      <path style="
          fill: none;
          stroke: #000000;
          stroke-width: 0.5;
          stroke-miterlimit: 4;
          stroke-dasharray: none;
          stroke-opacity: 1;
        "
        d="m 17.270488,27.878474 c 0.0958,0.465416 0.27099,0.690186 0.496151,0.991638 0.07789,0.10429 0.125868,0.230683 0.125868,0.370878 0,0.342813 -0.279183,0.620776 -0.621988,0.620776 -0.342814,0 -0.619564,-0.277963 -0.619564,-0.620776 0,-0.138342 0.0428,-0.269876 0.1222,-0.370878 0.234976,-0.29895 0.406955,-0.524932 0.497324,-0.991677 z" />
    </g>
  </symbol>
  <symbol viewBox="0 0 10.221108 21.334512" xmlns:sodipodi="http://sodipodi.sourceforge.net/DTD/sodipodi-0.dtd"
    xmlns="http://www.w3.org/2000/svg" xmlns:svg="http://www.w3.org/2000/svg"
    xmlns:osb="http://www.openswatchbook.org/uri/2009/osb" id="flow">
    <defs>
      <linearGradient id="linearGradient4194" osb:paint="gradient">
        <stop style="stop-color: #ffff00; stop-opacity: 1" offset="0" />
        <stop style="stop-color: currentColor; stop-opacity: 1" offset="1" />
      </linearGradient>
    </defs>
    <path style="fill: currentColor; stroke: #000000; stroke-width: 0.889176px"
      d="m 9.7077419,16.908637 -2.298594,3.981286 H 2.8119599 L 0.51336587,16.908637 2.8119599,12.927351 h 4.597188 z" />
    <g transform="matrix(0.83920236,0,0,0.83920236,-8.3130944,-6.3365267)">
      <path id="path4146" d="m 14.917284,30.513877 v -5.217284 h 2.569115" style="
          fill: none;
          fill-rule: evenodd;
          stroke: #000000;
          stroke-width: 0.824475px;
          stroke-linecap: butt;
          stroke-linejoin: miter;
          stroke-opacity: 1;
        " />
      <path d="m 14.956808,27.549512 h 2.529591" style="
          fill: none;
          fill-rule: evenodd;
          stroke: #000000;
          stroke-width: 0.824475px;
          stroke-linecap: butt;
          stroke-linejoin: miter;
          stroke-opacity: 1;
        " />
    </g>
    <path style="
        fill: none;
        fill-rule: evenodd;
        stroke: #000000;
        stroke-width: 1px;
        stroke-linecap: butt;
        stroke-linejoin: miter;
        stroke-opacity: 1;
      " d="M 5.1629049,12.964256 V 0.5 H 0.56071887" />
    <path style="
        fill: none;
        fill-rule: evenodd;
        stroke: #000000;
        stroke-width: 1px;
        stroke-linecap: butt;
        stroke-linejoin: miter;
        stroke-opacity: 1;
      " d="m 5.0190869,8.889403 h 2.205215 v 4.122792" />
  </symbol>
  <symbol xmlns:rdf="http://www.w3.org/1999/02/22-rdf-syntax-ns#" xmlns="http://www.w3.org/2000/svg"
    xmlns:cc="http://creativecommons.org/ns#" xmlns:dc="http://purl.org/dc/elements/1.1/" viewBox="0 0 32 32"
    version="1.1" id="heatpump">
    <g class="heat-pump" stroke-linejoin="round" stroke="#000" transform="translate(39 -2.3842e-7)" fill="currentColor">
      <rect class="inner" height="27.718" width="27.718" y="2.141" x="-36.859" stroke-width="1.0868"></rect>
      <g transform="matrix(1.0276 0 0 1.0276 -39.441 -.44130)" stroke-linecap="round" stroke-miterlimit="1"
        stroke-width="1.3509">
        <path d="m16.234 16.944 8.6837-6.894-8.6837-6.894v3.447h-13.152v6.894h13.152z" fill="#ce2824"></path>
        <path d="m15.766 28.844-8.6837-6.894 8.6837-6.894v3.447h13.152v6.894h-13.152z" fill="#3238db"></path>
      </g>
    </g>
  </symbol>
  <symbol id="pump" viewBox="0 0 20.921802 20.921802" version="1.1"
    xmlns:sodipodi="http://sodipodi.sourceforge.net/DTD/sodipodi-0.dtd" xmlns="http://www.w3.org/2000/svg"
    xmlns:svg="http://www.w3.org/2000/svg">
    <g fill="currentColor" transform="translate(-5.4940996,-5.5390997)">
      <g class="pump">
        <circle stroke="#000000" cy="16" cx="15.955" r="9.9609003" class="pump-background" />
        <g transform="translate(16,16)">
          <path d="M -5,8.1369 V -8.1191 L 9.078,0.0091 Z" class="rotating-middle" stroke="#000000"
            stroke-width="0.96719" />
        </g>
      </g>
    </g>
  </symbol>
  <symbol id="ValveThreeWay" viewBox="0 0 23.15 18.469064" version="1.1"
    xmlns:sodipodi="http://sodipodi.sourceforge.net/DTD/sodipodi-0.dtd" xmlns="http://www.w3.org/2000/svg"
    xmlns:svg="http://www.w3.org/2000/svg">
    <g transform="matrix(1,0,0,-1,-4.425,22.894063)">
      <g stroke-linejoin="round" stroke="#000000" class="twv" fill="currentColor">
        <g stroke-linecap="round">
          <path d="M 16,16 4.925,22.3941 V 9.6061 Z" />
          <path d="m 16,16 11.075,6.3941 V 9.6061 Z" />
          <path d="M 16,16 9.606,4.925 h 12.788 z" />
        </g>
        <g class="blocker-wrapper">
          <g class="blocker" fill="#000000">
            <path stroke-width="0.80716"
              d="m 16.0193,6.3312988 a 8.8788,8.8788 0 0 0 -6.0272998,2.375 L 11.6092,11.507099 a 5.7576,5.7576 0 0 1 4.4101,-2.0547002 5.7576,5.7576 0 0 1 4.4062,2.0605002 l 1.6231,-2.8105002 a 8.8788,8.8788 0 0 0 -6.0293,-2.3711 z" />
          </g>
        </g>
      </g>
      <path d="M 6.7797,10.576 V 21.084" stroke="#000000" stroke-width="1px" fill="none" />
    </g>
  </symbol>
  <symbol id="ValveTwoWay" viewBox="0 0 22.956221 13.906571" version="1.1"
    xmlns:sodipodi="http://sodipodi.sourceforge.net/DTD/sodipodi-0.dtd" xmlns="http://www.w3.org/2000/svg"
    xmlns:svg="http://www.w3.org/2000/svg">
    <g stroke-linejoin="round" fill-rule="nonzero" transform="translate(-3.8922957,-7.3951286)" stroke="#000000"
      stroke-linecap="round" stroke-dasharray="none" stroke-miterlimit="4" stroke-width="1" fill="currentColor">
      <path d="M 10.068,7.9344 -1.007,14.3285 V 1.5405 Z" transform="translate(5.3992957,6.473236)" />
      <path d="M 10.068,7.9344 -1.007,14.3285 V 1.5405 Z" transform="matrix(-1,0,0,1,25.341517,6.354592)" />
    </g>
  </symbol>
  <symbol id="humidity" version="1.1" viewBox="0 0 10.221108 22.472175"
    xmlns:osb="http://www.openswatchbook.org/uri/2009/osb" xmlns:dc="http://purl.org/dc/elements/1.1/"
    xmlns:cc="http://creativecommons.org/ns#" xmlns:rdf="http://www.w3.org/1999/02/22-rdf-syntax-ns#"
    xmlns:svg="http://www.w3.org/2000/svg" xmlns="http://www.w3.org/2000/svg"
    xmlns:sodipodi="http://sodipodi.sourceforge.net/DTD/sodipodi-0.dtd"
    xmlns:inkscape="http://www.inkscape.org/namespaces/inkscape">
    <defs>
      <linearGradient inkscape:swatch="gradient">
        <stop style="stop-color: #ffff00; stop-opacity: 1" offset="0" />
        <stop style="stop-color: currentColor; stop-opacity: 1" offset="1" />
      </linearGradient>
    </defs>
    <rect style="
        fill: #00d1ff;
        fill-opacity: 1;
        fill-rule: nonzero;
        stroke: #000000;
        stroke-width: 1px;
      " x="3.660192" y="0.5" width="2.901" height="14.505" />
    <path style="fill: currentColor; stroke: #000000; stroke-width: 0.889176px"
      d="m 9.7077419,18.0463 -2.298594,3.981286 H 2.8119599 L 0.51336587,18.0463 2.8119599,14.065014 h 4.597188 z" />
    <g transform="translate(-10.962785,-9.3157224)">
      <g>
        <path
          d="m 17.43357,24.668533 c 0.0958,0.465416 0.27099,0.690186 0.496151,0.991638 0.07789,0.10429 0.125868,0.230683 0.125868,0.370878 0,0.342813 -0.279183,0.620776 -0.621988,0.620776 -0.342814,0 -0.619564,-0.277963 -0.619564,-0.620776 0,-0.138342 0.0428,-0.269876 0.1222,-0.370878 0.234976,-0.29895 0.406955,-0.524932 0.497324,-0.991677 z"
          style="
            fill: none;
            stroke: #000000;
            stroke-width: 0.5;
            stroke-miterlimit: 4;
            stroke-dasharray: none;
            stroke-opacity: 1;
          " />
        <path
          d="m 17.43357,27.878474 c 0.0958,0.465416 0.27099,0.690186 0.496151,0.991638 0.07789,0.10429 0.125868,0.230683 0.125868,0.370878 0,0.342813 -0.279183,0.620776 -0.621988,0.620776 -0.342814,0 -0.619564,-0.277963 -0.619564,-0.620776 0,-0.138342 0.0428,-0.269876 0.1222,-0.370878 0.234976,-0.29895 0.406955,-0.524932 0.497324,-0.991677 z"
          style="
            fill: none;
            stroke: #000000;
            stroke-width: 0.5;
            stroke-miterlimit: 4;
            stroke-dasharray: none;
            stroke-opacity: 1;
          " />
      </g>
      <g transform="translate(0,0.107786)">
        <path
          d="m 14.710621,24.560747 c 0.0958,0.465416 0.27099,0.690186 0.496151,0.991638 0.07789,0.10429 0.125868,0.230683 0.125868,0.370878 0,0.342813 -0.279183,0.620776 -0.621988,0.620776 -0.342814,0 -0.619564,-0.277963 -0.619564,-0.620776 0,-0.138342 0.0428,-0.269876 0.1222,-0.370878 0.234976,-0.29895 0.406955,-0.524932 0.497324,-0.991677 z"
          style="
            fill: none;
            stroke: #000000;
            stroke-width: 0.5;
            stroke-miterlimit: 4;
            stroke-dasharray: none;
            stroke-opacity: 1;
          " />
        <path
          d="m 14.710621,27.770688 c 0.0958,0.465416 0.27099,0.690186 0.496151,0.991638 0.07789,0.10429 0.125868,0.230683 0.125868,0.370878 0,0.342813 -0.279183,0.620776 -0.621988,0.620776 -0.342814,0 -0.619564,-0.277963 -0.619564,-0.620776 0,-0.138342 0.0428,-0.269876 0.1222,-0.370878 0.234976,-0.29895 0.406955,-0.524932 0.497324,-0.991677 z"
          style="
            fill: none;
            stroke: #000000;
            stroke-width: 0.5;
            stroke-miterlimit: 4;
            stroke-dasharray: none;
            stroke-opacity: 1;
          " />
      </g>
    </g>
  </symbol>
  <symbol id="pressure" version="1.1" viewBox="0 0 28.852817 27.05043"
    xmlns:sodipodi="http://sodipodi.sourceforge.net/DTD/sodipodi-0.dtd" xmlns="http://www.w3.org/2000/svg"
    xmlns:svg="http://www.w3.org/2000/svg" xmlns:rdf="http://www.w3.org/1999/02/22-rdf-syntax-ns#"
    xmlns:cc="http://creativecommons.org/ns#" xmlns:dc="http://purl.org/dc/elements/1.1/">
    <path style="fill: currentColor; stroke: #000000; stroke-width: 1.29098px"
      d="M 21.101011,20.624556 17.76371,26.404938 H 11.089107 L 7.7518058,20.624556 11.089107,14.844174 h 6.674603 z" />
    <g transform="matrix(0.39332133,0,0,0.5366036,8.3312906,37.286552)">
      <g transform="translate(0,0.03745956)">
        <path style="
            fill: none;
            stroke: #000000;
            stroke-width: 1.30927;
            stroke-linecap: round;
            stroke-linejoin: round;
            stroke-miterlimit: 4;
            stroke-dasharray: none;
          " d="m 16.929663,-31.088307 4.3966,-1.150699 v 2.301399 z" stroke-miterlimit="4" />
        <path style="
            fill: none;
            stroke: #000000;
            stroke-width: 1;
            stroke-linecap: butt;
            stroke-linejoin: miter;
            stroke-miterlimit: 4;
            stroke-dasharray: none;
          " d="M 27.541431,-31.088307 H 18.912663" />
      </g>
      <path d="m 15.532379,-39.152447 v 16.2032" style="
          fill: none;
          stroke: #000000;
          stroke-width: 1px;
          stroke-linecap: butt;
          stroke-linejoin: miter;
        " />
      <g transform="matrix(-1,0,0,1,-1.8983044,-0.27118644)">
        <path style="
            fill: none;
            stroke: #000000;
            stroke-width: 1.30927;
            stroke-linecap: round;
            stroke-linejoin: round;
            stroke-miterlimit: 4;
            stroke-dasharray: none;
          " d="m -15.961713,-30.779661 4.3966,-1.150699 v 2.301399 z" stroke-miterlimit="4" />
        <path style="
            fill: none;
            stroke: #000000;
            stroke-width: 1;
            stroke-linecap: butt;
            stroke-linejoin: miter;
            stroke-miterlimit: 4;
            stroke-dasharray: none;
          " d="M -5.3499446,-30.779661 H -13.978713" />
      </g>
    </g>
    <g transform="translate(-1.5131572,-0.15657804)">
      <path d="M 2.0131572,0.15657804 V 6.9638416 H 14.573291 v 8.3199894" style="
          fill: none;
          fill-rule: evenodd;
          stroke: #000000;
          stroke-width: 1;
          stroke-linecap: butt;
          stroke-linejoin: miter;
          stroke-miterlimit: 4;
          stroke-dasharray: none;
          stroke-opacity: 1;
        " />
      <path d="M 29.865974,0.15657812 V 6.9638416 H 17.305841 v 8.3199894" style="
          fill: none;
          fill-rule: evenodd;
          stroke: #000000;
          stroke-width: 1;
          stroke-linecap: butt;
          stroke-linejoin: miter;
          stroke-miterlimit: 4;
          stroke-dasharray: none;
          stroke-opacity: 1;
        " />
    </g>
  </symbol>
  <symbol id="thermal-wheel" viewBox="0 0 26.777448 31.905044" version="1.1"
    xmlns:sodipodi="http://sodipodi.sourceforge.net/DTD/sodipodi-0.dtd" xmlns="http://www.w3.org/2000/svg"
    xmlns:svg="http://www.w3.org/2000/svg" xmlns:rdf="http://www.w3.org/1999/02/22-rdf-syntax-ns#"
    xmlns:cc="http://creativecommons.org/ns#" xmlns:dc="http://purl.org/dc/elements/1.1/">
    <g stroke="#000000" fill="currentColor" transform="translate(-2.370089)">
      <rect class="thermal-wheel-background" height="40" width="25.5" y="-4" x="3" fill="inherit" stroke-width="1" />
      <g class="thermal-wheel" stroke-width="1">
        <line x1="3" x2="28.5" y1="-4" y2="-4" />
        <line x1="3" x2="28.5" y1="0" y2="0" />
        <line x1="3" x2="28.5" y1="4" y2="4" />
        <line x1="3" x2="28.5" y1="8" y2="8" />
        <line x1="3" x2="28.5" y1="12" y2="12" />
        <line x1="3" x2="28.5" y1="16" y2="16" />
        <line x1="3" x2="28.5" y1="20" y2="20" />
        <line x1="3" x2="28.5" y1="24" y2="24" />
        <line x1="3" x2="28.5" y1="28" y2="28" />
        <line x1="3" x2="28.5" y1="32" y2="32" />
        <line x1="3" x2="28.5" y1="36" y2="36" />
      </g>
    </g>
  </symbol>
  <symbol id="room-humidity" version="1.1" viewBox="0 0 18.016948 18.016948"
    xmlns:sodipodi="http://sodipodi.sourceforge.net/DTD/sodipodi-0.dtd" xmlns="http://www.w3.org/2000/svg"
    xmlns:svg="http://www.w3.org/2000/svg" xmlns:rdf="http://www.w3.org/1999/02/22-rdf-syntax-ns#"
    xmlns:cc="http://creativecommons.org/ns#" xmlns:dc="http://purl.org/dc/elements/1.1/">
    <g transform="translate(-6.9915256,-6.9915256)">
      <circle r="8.6263752" cy="16" cx="16" style="
          opacity: 1;
          fill: currentColor;
          fill-opacity: 1;
          fill-rule: nonzero;
          stroke: #000000;
          stroke-width: 0.764198;
          stroke-linecap: butt;
          stroke-linejoin: round;
          stroke-miterlimit: 4;
          stroke-dasharray: none;
          stroke-opacity: 1;
        " />
      <g transform="matrix(0.29971746,0,0,0.29971746,20.655088,20.220855)" style="
          font-style: normal;
          font-weight: normal;
          font-size: 51.4601px;
          line-height: 125%;
          font-family: Sans;
          letter-spacing: 0px;
          word-spacing: 0px;
          fill: #000000;
          fill-opacity: 1;
          stroke: none;
          stroke-width: 1px;
          stroke-linecap: butt;
          stroke-linejoin: miter;
          stroke-opacity: 1;
        ">
        <path
          d="m -29.828843,-32.840076 h 5.075651 v 15.377717 h 18.4432096 v -15.377717 h 5.0756516 V 4.6745172 H -6.3099824 V -13.190771 H -24.753192 V 4.6745172 h -5.075651 z" />
      </g>
    </g>
  </symbol>
  <symbol id="room-temperature" version="1.1" viewBox="0 0 18.016949 18.016949"
    xmlns:sodipodi="http://sodipodi.sourceforge.net/DTD/sodipodi-0.dtd" xmlns="http://www.w3.org/2000/svg"
    xmlns:svg="http://www.w3.org/2000/svg" xmlns:rdf="http://www.w3.org/1999/02/22-rdf-syntax-ns#"
    xmlns:cc="http://creativecommons.org/ns#" xmlns:dc="http://purl.org/dc/elements/1.1/">
    <g transform="matrix(0.76419842,0,0,0.76419842,-3.2187002,-3.2187002)">
      <circle r="11.288136" cy="16" cx="16" style="
          opacity: 1;
          fill: currentColor;
          fill-opacity: 1;
          fill-rule: nonzero;
          stroke: #000000;
          stroke-width: 1;
          stroke-linecap: butt;
          stroke-linejoin: round;
          stroke-miterlimit: 4;
          stroke-dasharray: none;
          stroke-opacity: 1;
        " />
      <g transform="translate(32.100664,13.086915)" style="
          font-style: normal;
          font-weight: normal;
          font-size: 20.2897px;
          line-height: 125%;
          font-family: Sans;
          letter-spacing: 0px;
          word-spacing: 0px;
          fill: #000000;
          fill-opacity: 1;
          stroke: none;
          stroke-width: 1px;
          stroke-linecap: butt;
          stroke-linejoin: miter;
          stroke-opacity: 1;
        ">
        <path
          d="m -22.356997,-4.4825641 h 12.5126658 v 1.6842067 H -15.095093 V 10.308734 h -2.011141 V -2.7983574 h -5.250763 z" />
      </g>
    </g>
  </symbol>
  <symbol id="block" xmlns="http://www.w3.org/2000/svg" viewBox="0 -960 960 960">
    <path
      d="M480-80q-83 0-156-31.5T197-197q-54-54-85.5-127T80-480q0-83 31.5-156T197-763q54-54 127-85.5T480-880q83 0 156 31.5T763-763q54 54 85.5 127T880-480q0 83-31.5 156T763-197q-54 54-127 85.5T480-80Zm0-60q142.375 0 241.188-98.812Q820-337.625 820-480q0-60.662-21-116.831Q778-653 740-699L261-220q45 39 101.493 59.5Q418.987-140 480-140ZM221-261l478-478q-46-39-102.169-60T480-820q-142.375 0-241.188 98.812Q140-622.375 140-480q0 61.013 22 117.507Q184-306 221-261Z" />
  </symbol>
  <symbol id="back_hand" xmlns="http://www.w3.org/2000/svg" enable-background="new 0 0 24 24" viewBox="0 0 24 24">
    <rect fill="none" height="24" width="24" />
    <path
      d="M13,24c-3.26,0-6.19-1.99-7.4-5.02l-3.03-7.61C2.26,10.58,3,9.79,3.81,10.05l0.79,0.26c0.56,0.18,1.02,0.61,1.24,1.16 L7.25,15H8V3.25C8,2.56,8.56,2,9.25,2s1.25,0.56,1.25,1.25V12h1V1.25C11.5,0.56,12.06,0,12.75,0S14,0.56,14,1.25V12h1V2.75 c0-0.69,0.56-1.25,1.25-1.25c0.69,0,1.25,0.56,1.25,1.25V12h1V5.75c0-0.69,0.56-1.25,1.25-1.25S21,5.06,21,5.75V16 C21,20.42,17.42,24,13,24z" />
  </symbol>
  <symbol id="warning" xmlns="http://www.w3.org/2000/svg" viewBox="0 -960 960 960">
    <path
      d="m40-120 440-760 440 760H40Zm104-60h672L480-760 144-180Zm340.175-57q12.825 0 21.325-8.675 8.5-8.676 8.5-21.5 0-12.825-8.675-21.325-8.676-8.5-21.5-8.5-12.825 0-21.325 8.675-8.5 8.676-8.5 21.5 0 12.825 8.675 21.325 8.676 8.5 21.5 8.5ZM454-348h60v-224h-60v224Zm26-122Z" />
  </symbol>
  <symbol id="link_off" xmlns="http://www.w3.org/2000/svg" viewBox="0 -960 960 960">
    <path
      d="m750-291-49-49q51-10 85-48t34-89q0-58-41-99t-99-41H525v-60h155q83 0 141.5 58.5T880-477q0 62-36 112t-94 74ZM594-447l-60-60h101v60h-41ZM814-56 63-807l43-43L857-99l-43 43ZM450-280H280q-83 0-141.5-58.5T80-480q0-72 44.5-127T238-676l56 56h-14q-58 0-99 41t-41 99q0 58 41 99t99 41h170v60ZM325-450v-60h79l60 60H325Z" />
  </symbol>
  <symbol id="fiber_manual_record" xmlns="http://www.w3.org/2000/svg" viewBox="0 0 24 24">
    <path d="M24 24H0V0h24v24z" fill="none" />
    <circle cx="12" cy="12" r="8" />
  </symbol>
  <symbol id="forward" xmlns="http://www.w3.org/2000/svg" viewBox="0 0 24 24">
    <path d="M0 0h24v24H0z" fill="none" />
    <path d="M12 8V4l8 8-8 8v-4H4V8z" />
  </symbol>
  <symbol id="g_step" xmlns="http://www.w3.org/2000/svg" viewBox="0 0 32 32">
    <path d="M 1.6 5.4 L 25.6 5.4 L 30.4 15 L 25.6 24.6 L 1.6 24.6 L 6.4 15 Z" stroke="#000" stroke-width="1"
      stroke-miterlimit="10"></path>
  </symbol>
  <symbol id="g_arr_right" xmlns="http://www.w3.org/2000/svg" viewBox="0 0 32 32">
    <path d="M0,10.4 L22.4,10.4 L22.4,8 L32,16 L22.4,24 L22.4,21.6 L0,21.6 L0,10.4 z" stroke="#000" stroke-width="1"
      stroke-miterlimit="10"></path>
  </symbol>
  <symbol id="g_rectangle" xmlns="http://www.w3.org/2000/svg" viewBox="0 0 32 32">
    <rect x="1.6" y="7.8" width="29" height="17" stroke="#000" stroke-width="1">
    </rect>
  </symbol>
  <symbol id="g_circle" xmlns="http://www.w3.org/2000/svg" viewBox="0 0 32 32">
    <circle cx="16" cy="16" r="13" stroke="#000" stroke-width="1" />
  </symbol>
  <symbol id="g_hexagon" xmlns="http://www.w3.org/2000/svg" viewBox="0 0 32 32">
    <path d="M 6.4 5.4 L 25.6 5.4 L 30.4 15 L 25.6 24.6 L 6.4 24.6 L 1.6 15 Z" stroke="#000" stroke-width="1"
      stroke-miterlimit="10">
    </path>
  </symbol>
  <symbol id="g_oval" xmlns="http://www.w3.org/2000/svg" viewBox="0 0 32 32">
    <ellipse cx="16" cy="16" rx="13" ry="9" stroke="#000" stroke-width="1" stroke-miterlimit="10" />
  </symbol>
  <symbol id="int_ext_wall" xmlns="http://www.w3.org/2000/svg" viewBox="0 0 32 32">
    <path d="M0,16 L60,16" stroke-width="13.5" stroke="rgb(25,118,210)"></path>
  </symbol>


  <symbol id="duct1" xmlns="http://www.w3.org/2000/svg" viewBox="0 0 68.5 29.67">
    <g transform="scale(1.8,1.8) translate(-15,-10)">
      <g width="19.833" height="0" transform="scale(1,1) translate(0.5,14.5)">
        <g transform="scale(1,1) translate(0,0)" fill="#000000" stroke="#000000" stroke-opacity="1">
          <path d="M0,0 L19.833,0" fill="none" stroke-width="1" stroke-dasharray="none" />
          <g>
            <g stroke-dasharray="none">
              <path d="M-1,-1L1,-1L1,1L-1,1z" stroke-width="0" fill="none" />
            </g>
          </g>
        </g>
      </g>
      <g width="18.667" height="0" transform="scale(1,1) translate(48.333,14.5)">
        <g transform="scale(1,1) translate(0,0)" fill="#000000" stroke="#000000" stroke-opacity="1">
          <path d="M0,0 L18.667,0" fill="none" stroke-width="1" stroke-dasharray="none" />
          <g>
            <g stroke-dasharray="none">
              <path d="M-1,-1L1,-1L1,1L-1,1z" stroke-width="0" fill="none" />
            </g>
          </g>
        </g>
      </g>
      <g width="28.667" height="28.667" transform="rotate(270,33.667,14.333) scale(1,1) translate(19.333,0)">
        <g width="28.667" height="28.667" transform="scale(1,1) translate(0,0)" stroke="#000000" stroke-width="1"
          stroke-dasharray="none" fill="#FFFFFF" fill-opacity="1" stroke-opacity="1">
          <ellipse rx="14.3335" ry="14.3335" cx="14.3335" cy="14.3335" />
        </g>
      </g>
      <g width="20.333" height="20.333" transform="scale(1,1) translate(23.5,4.167)">
        <g transform="scale(1,1) translate(0,0)" fill="#000000" stroke="#000000" stroke-opacity="1">
          <path d="M0,20.333 L20.333,0" fill="none" stroke-width="1" stroke-dasharray="none" />
          <g>
            <g stroke-dasharray="none">
              <path d="M-1,19.333L1,19.333L1,21.333L-1,21.333z" stroke-width="0" fill="none" />
            </g>
          </g>
        </g>
      </g>
      <g width="20.333" height="20.333" transform="scale(1,1) translate(23.5,4.167)">
        <g transform="scale(1,1) translate(0,0)" fill="#000000" stroke="#000000" stroke-opacity="1">
          <path d="M0,0 L20.333,20.333" fill="none" stroke-width="1" stroke-dasharray="none" />
          <g>
            <g stroke-dasharray="none">
              <path d="M-1,-1L1,-1L1,1L-1,1z" stroke-width="0" fill="none" />
            </g>
          </g>
        </g>
      </g>
    </g>
  </symbol>

  <symbol id="duct2" xmlns="http://www.w3.org/2000/svg" viewBox="0 0 76 21.83">
    <g transform="scale(1.8,1.8) translate(-15,-10)">
      <g width="35.833" height="20.833" transform="scale(1,1) translate(19.5,0)">
        <g stroke="#000000" opacity="1" stroke-width="1" stroke-dasharray="none" width="35.833" height="20.833"
          transform="scale(1,1)
translate(0,0)" fill="#FFFFFF" fill-opacity="1" stroke-opacity="1">
          <rect width="35.833" height="20.833" />
        </g>
      </g>
      <g width="28.167" height="0" transform="scale(1,1)
translate(0.5,10.333)">
        <g transform="scale(1,1) translate(0,0)" fill="#000000" stroke="#000000" stroke-opacity="1">
          <path d="M0,0 L28.167,0" fill="none" stroke-width="1" stroke-dasharray="none" />
          <g>
            <g stroke-dasharray="none">
              <path d="M-1,-1L1,-1L1,1L-1,1z" stroke-width="0" fill="none" />
            </g>
          </g>
        </g>
      </g>
      <g width="28.167" height="0" transform="scale(1,1) translate(46.333,10.333)">
        <g transform="scale(1,1) translate(0,0)" fill="#000000" stroke="#000000" stroke-opacity="1">
          <path d="M0,0 L28.167,0" fill="none" stroke-width="1" stroke-dasharray="none" />
          <g>
            <g stroke-dasharray="none">
              <path d="M-1,-1L1,-1L1,1L-1,1z" stroke-width="0" fill="none" />
            </g>
          </g>
        </g>
      </g>
    </g>
  </symbol>

  <symbol id="duct3" xmlns="http://www.w3.org/2000/svg" viewBox="0 0 68.5 29.67">
    <g transform="scale(1.6,1.6) translate(-15,-10)">
      <g width="19.833" height="0" transform="scale(1,1) translate(0.5,14.833)">
        <g transform="scale(1,1)
translate(0,0)" fill="#000000" stroke="#000000" stroke-opacity="1">
          <path d="M0,0 L19.833,0" fill="none" stroke-width="1" stroke-dasharray="none" />
          <g>
            <g stroke-dasharray="none">
              <path d="M-1,-1L1,-1L1,1L-1,1z" stroke-width="0" fill="none" />
            </g>
          </g>
        </g>
      </g>
      <g width="18.667" height="0" transform="scale(1,1)
translate(48.333,14.833)">
        <g transform="scale(1,1) translate(0,0)" fill="#000000" stroke="#000000" stroke-opacity="1">
          <path d="M0,0 L18.667,0" fill="none" stroke-width="1" stroke-dasharray="none" />
          <g>
            <g stroke-dasharray="none">
              <path d="M-1,-1L1,-1L1,1L-1,1z" stroke-width="0" fill="none" />
            </g>
          </g>
        </g>
      </g>
      <g width="28.667" height="28.667" transform="rotate(270,33.667,14.833) scale(1,1) translate(19.333,0.5)">
        <g stroke="#000000" opacity="1" stroke-width="1" stroke-dasharray="none" width="28.667" height="28.667"
          transform="scale(1,1) translate(0,0)" fill="#FFFFFF" fill-opacity="1" stroke-opacity="1">
          <rect width="28.667" height="28.667" />
        </g>
      </g>
    </g>
  </symbol>

  <symbol id="duct4" xmlns="http://www.w3.org/2000/svg" viewBox="0 0 68.5 30.67">
    <g transform="scale(1.6,1.6) translate(-15,-10)">
      <g width="19.833" height="0" transform="scale(1,1) translate(0.5,14.833)">
        <g transform="scale(1,1) translate(0,0)" fill="#000000" stroke="#000000" stroke-opacity="1">
          <path d="M0,0 L19.833,0" fill="none" stroke-width="1" stroke-dasharray="none" />
          <g>
            <g stroke-dasharray="none">
              <path d="M-1,-1L1,-1L1,1L-1,1z" stroke-width="0" fill="none" />
            </g>
          </g>
        </g>
      </g>
      <g width="18.667" height="0" transform="scale(1,1) translate(48.333,14.833)">
        <g transform="scale(1,1)
translate(0,0)" fill="#000000" stroke="#000000" stroke-opacity="1">
          <path d="M0,0 L18.667,0" fill="none" stroke-width="1" stroke-dasharray="none" />
          <g>
            <g stroke-dasharray="none">
              <path d="M-1,-1L1,-1L1,1L-1,1z" stroke-width="0" fill="none" />
            </g>
          </g>
        </g>
      </g>
      <g width="28.667" height="28.667" transform="rotate(270,33.667,14.833) scale(1,1) translate(19.333,0.5)">
        <g stroke="#000000" opacity="1" stroke-width="1" stroke-dasharray="none" width="28.667" height="28.667"
          transform="scale(1,1) translate(0,0)" fill="#FFFFFF" fill-opacity="1" stroke-opacity="1">
          <rect width="28.667" height="28.667" />
        </g>
      </g>
      <g width="28.667" height="28.667" transform="scale(1,1) translate(19.333,0.5)">
        <g transform="scale(1,1) translate(0,0)" fill="#000000" stroke="#000000" stroke-opacity="1">
          <path d="M0,0
L28.667,28.667" fill="none" stroke-width="1" stroke-dasharray="none" />
          <g>
            <g stroke-dasharray="none">
              <path d="M-1,-1L1,-1L1,1L-1,1z" stroke-width="0" fill="none" />
            </g>
          </g>
        </g>
      </g>
    </g>
  </symbol>

  <symbol id="duct5" xmlns="http://www.w3.org/2000/svg" viewBox="0 0 68.5 29.67">
    <g transform="scale(1.6,1.6) translate(-15,-10)">
      <g width="19.833" height="0" transform="scale(1,1) translate(0.5,14.833)">
        <g transform="scale(1,1) translate(0,0)" fill="#000000" stroke="#000000" stroke-opacity="1">
          <path d="M0,0 L19.833,0" fill="none" stroke-width="1" stroke-dasharray="none" />
          <g>
            <g stroke-dasharray="none">
              <path d="M-1,-1L1,-1L1,1L-1,1z" stroke-width="0" fill="none" />
            </g>
          </g>
        </g>
      </g>
      <g width="18.667" height="0" transform="scale(1,1) translate(48.333,14.833)">
        <g transform="scale(1,1)
translate(0,0)" fill="#000000" stroke="#000000" stroke-opacity="1">
          <path d="M0,0 L18.667,0" fill="none" stroke-width="1" stroke-dasharray="none" />
          <g>
            <g stroke-dasharray="none">
              <path d="M-1,-1L1,-1L1,1L-1,1z" stroke-width="0" fill="none" />
            </g>
          </g>
        </g>
      </g>
      <g width="28.667" height="28.667" transform="rotate(270,33.667,14.833) scale(1,1) translate(19.333,0.5)">
        <g stroke="#000000" opacity="1" stroke-width="1" stroke-dasharray="none" width="28.667" height="28.667"
          transform="scale(1,1) translate(0,0)" fill="#FFFFFF" fill-opacity="1" stroke-opacity="1">
          <rect width="28.667" height="28.667" />
        </g>
      </g>
      <g width="28.667" height="28.667" transform="scale(1,1) translate(19.333,0.5)">
        <g transform="scale(1,1) translate(0,0)" fill="#000000" stroke="#000000" stroke-opacity="1">
          <path d="M0,0
L28.667,28.667" fill="none" stroke-width="1" stroke-dasharray="none" />
          <g>
            <g stroke-dasharray="none">
              <path d="M-1,-1L1,-1L1,1L-1,1z" stroke-width="0" fill="none" />
            </g>
          </g>
        </g>
      </g>
      <g width="28.667" height="28.667" transform="scale(1,1) translate(19.333,0.5)">
        <g transform="scale(1,1) translate(0,0)" fill="#000000" stroke="#000000" stroke-opacity="1">
          <path d="M0,28.667
L28.667,0" fill="none" stroke-width="1" stroke-dasharray="none" />
          <g>
            <g stroke-dasharray="none">
              <path d="M-1,27.667L1,27.667L1,29.667L-1,29.667z" stroke-width="0" fill="none" />
            </g>
          </g>
        </g>
      </g>
    </g>
  </symbol>

  <symbol id="duct7" xmlns="http://www.w3.org/2000/svg" viewBox="0 0 30 60">
    <g>
      <g>
        <g width="30" height="60" transform="rotate(0,0) scale(1,1) translate(0,0)">
          <g stroke="#000000" opacity="1" stroke-width="1" stroke-dasharray="none" width="30" height="60"
            transform="scale(1,1) translate(0,0)" fill="#FFFFFF" fill-opacity="1" stroke-opacity="1">
            <rect width="30" height="60" />
          </g>
        </g>
        <g width="30" height="60" transform="scale(1,1) translate(0,0)">
          <g transform="scale(1,1) translate(0,0)" fill="#000000" stroke="#000000" stroke-opacity="1">
            <path d="M0,0 L30,60" fill="none" stroke-width="1" stroke-dasharray="none" />
            <g>
              <g stroke-dasharray="none">
                <path d="M-1,-1L1,-1L1,1L-1,1z" stroke-width="0" fill="none" />
              </g>
            </g>
          </g>
        </g>
      </g>
    </g>
  </symbol>

  <symbol id="duct8" xmlns="http://www.w3.org/2000/svg" viewBox="0 0 30 60">
    <g width="30" height="60" transform="scale(1,1) translate(0,0)">
      <g transform="scale(1,1) translate(0,0)" fill="#FFFFFF" stroke="#000000" stroke-width="1" stroke-opacity="1">
        <path d="M 0,0 L30,0 L30,60 L0,60 L0,0" />
      </g>
    </g>
  </symbol>

  <symbol id="duct9" xmlns="http://www.w3.org/2000/svg" viewBox="0 0 60 60">
    <g width="60" height="60" transform="scale(1,1) translate(0,0)">
      <g transform="scale(1,1) translate(0,0)" fill="#FFFFFF" stroke="#000000" stroke-width="1" stroke-opacity="1">

        <path d="
    M 0,0
    L 30,0
    A 30,30 0 0,0 60,30
    L 60,60
    A 60,60 0 0,1 0,0
    " />
      </g>
    </g>
  </symbol>


  <!--line-->
  <symbol id="line" xmlns="http://www.w3.org/2000/svg" viewBox="">
    <g stroke-opacity="1" fill-opacity="1" transform="scale(1,1) translate(0,12)" fill="#ffffff" stroke="#ffffff">
      <path d="M0,0 L66.667,0" fill="none" stroke-dasharray="none" stroke-width="2"></path>
      <g>
        <g stroke-dasharray="none">
          <path d="M-1,-1L1,-1L1,1L-1,1z" stroke-width="0" fill="none"></path>
        </g>
        <g stroke-dasharray="none">
          <path d="M65.667,-1L67.667,-1L67.667,1L65.667,1z" stroke-width="0" fill="none"></path>
        </g>
      </g>
    </g>
  </symbol>

  <symbol id="arcLine" xmlns="http://www.w3.org/2000/svg" viewBox="0 0 60 60">


  </symbol>

  <symbol id="segLine" xmlns="http://www.w3.org/2000/svg" viewBox="0 0 60 60">
    <g transform="scale(1,1) translate(0,0)" fill="#ffffff" stroke="#ffffff" stroke-opacity="1" fill-opacity="1">
      <path d="M0,41.667 L25,41.667 L25,0 L50,0" fill="none" stroke-width="3" stroke-dasharray="none"></path>
      <g>
        <g stroke-dasharray="none">
          <path d="M-1,40.667L1,40.667L1,42.667L-1,42.667z" stroke-width="0" fill="none"></path>
        </g>
        <g stroke-dasharray="none">
          <path d="M49,-1L51,-1L51,1L49,1z" stroke-width="0" fill="none"></path>
        </g>
      </g>
    </g>

  </symbol>

  <symbol id="polyLine" xmlns="http://www.w3.org/2000/svg" viewBox="0 0 60 60">


  </symbol>

  <symbol id="rectangle" xmlns="http://www.w3.org/2000/svg" viewBox="0 0 50 50">
    <g stroke="#000000" stroke-opacity="1" stroke-width="1" stroke-dasharray="none" width="50" height="22.333"
      transform="scale(1,1) translate(0,10)" fill="#FFFFFF" fill-opacity="1">
      <rect width="50" height="22.333"></rect>
    </g>
  </symbol>

  <symbol id="circle" xmlns="http://www.w3.org/2000/svg" viewBox="0 0 32 32">
    <g width="25" height="25" transform="scale(1,1) translate(0,0)" stroke="#000000" stroke-width="1"
      stroke-dasharray="none" fill="#FFFFFF" fill-opacity="1" stroke-opacity="1">
      <ellipse rx="12.5" ry="12.5" cx="12.5" cy="12.5"></ellipse>
    </g>
  </symbol>

  <symbol id="oval" xmlns="http://www.w3.org/2000/svg" viewBox="0 0 42 42">
    <g width="41.667" height="20.833" transform="scale(1,1) translate(0,10)" stroke="#000000" stroke-width="1"
      stroke-dasharray="none" fill="#FFFFFF" fill-opacity="1" stroke-opacity="1">
      <ellipse rx="20.8335" ry="10.4165" cx="20.8335" cy="10.4165"></ellipse>
    </g>
  </symbol>

  <symbol id="arrow_left" xmlns="http://www.w3.org/2000/svg" viewBox="0 0 60 60">
    <g transform="scale(1,1) translate(0,0)" stroke="#000000" fill="#FFFFFF" fill-opacity="1" stroke-opacity="1">
      <path d="M0,18.75 L45,0 L45,5.625 L78,5.625 L78,31.875 L45,31.875 L45,37.5 L0,18.75 z" stroke-width="1"
        stroke-dasharray="none"></path>
      <g></g>
    </g>
  </symbol>

  <symbol id="arrow_right" xmlns="http://www.w3.org/2000/svg" viewBox="0 0 60 60">
    <g transform="scale(1,1) translate(-10,10)" stroke="#000000" fill="#FFFFFF" fill-opacity="1" stroke-opacity="1">
      <path d="M0,5.625 L27.333,5.625 L27.333,0 L72.333,18.75 L27.333,37.5 L27.333,31.875 L0,31.875 L0,5.625 z"
        stroke-width="1" stroke-dasharray="none"></path>
      <g></g>
    </g>
  </symbol>

  <symbol id="arrow_top" xmlns="http://www.w3.org/2000/svg" viewBox="0 0 60 60">
    <g transform="scale(1,1) translate(0,0)" stroke="#000000" fill="#FFFFFF" fill-opacity="1" stroke-opacity="1">
      <path d="M23.667,0 L0,22.5 L7.1,22.5 L7.1,45.833 L40.233,45.833 L40.233,22.5 L47.333,22.5 L23.667,0 z"
        stroke-width="1" stroke-dasharray="none"></path>
      <g></g>
    </g>
  </symbol>

  <symbol id="arrow_bottom" xmlns="http://www.w3.org/2000/svg" viewBox="0 0 60 60">
    <g transform="scale(1,1) translate(0,0)" stroke="#000000" fill="#FFFFFF" fill-opacity="1" stroke-opacity="1">
      <path d="M7.426,0 L7.426,21.25 L0,21.25 L24.752,43.75 L49.503,21.25 L42.078,21.25 L42.078,0 L7.426,0 z"
        stroke-width="1" stroke-dasharray="none"></path>
      <g></g>
    </g>
  </symbol>
</svg>
