<svg id="Layer_1" data-name="Layer 1" xmlns="http://www.w3.org/2000/svg" width="16" height="16" viewBox="0 0 16 16">
  <defs>
    <style>
      .cls-1 {
        fill: #fff;
      }
    </style>
  </defs>
  <title>expand-diagonal-left</title>
  <path
    d="M0,0V16H16V0ZM8.08,9a.16.16,0,0,1,.06-.13l.68-.68A.18.18,0,0,1,9,8.08a.2.2,0,0,1,.14.06l2,2,.85-.85a.36.36,0,0,1,.54,0,.36.36,0,0,1,.11.26v2.67a.38.38,0,0,1-.38.38H9.52a.36.36,0,0,1-.26-.11.36.36,0,0,1,0-.54l.85-.85-2-2A.2.2,0,0,1,8.08,9ZM3.43,3.81a.38.38,0,0,1,.38-.38H6.48a.36.36,0,0,1,.26.11.36.36,0,0,1,0,.54l-.85.85,2,2a.2.2,0,0,1,.06.14.16.16,0,0,1-.06.13l-.68.68a.18.18,0,0,1-.13.06.2.2,0,0,1-.14-.06l-2-2-.85.85a.36.36,0,0,1-.54,0,.36.36,0,0,1-.11-.26Z" />
  <path class="cls-1"
    d="M3.81,3.43H6.48a.36.36,0,0,1,.26.11.36.36,0,0,1,0,.54l-.85.85,2,2a.2.2,0,0,1,.06.14.16.16,0,0,1-.06.13l-.68.68a.18.18,0,0,1-.13.06.2.2,0,0,1-.14-.06l-2-2-.85.85a.36.36,0,0,1-.54,0,.36.36,0,0,1-.11-.26V3.81a.38.38,0,0,1,.38-.38Z" />
  <path class="cls-1"
    d="M8.82,8.14A.18.18,0,0,1,9,8.08a.2.2,0,0,1,.14.06l2,2,.85-.85a.36.36,0,0,1,.54,0,.36.36,0,0,1,.11.26v2.67a.38.38,0,0,1-.38.38H9.52a.36.36,0,0,1-.26-.11.36.36,0,0,1,0-.54l.85-.85-2-2A.2.2,0,0,1,8.08,9a.16.16,0,0,1,.06-.13Z" />
</svg>