<svg id="Layer_1" data-name="Layer 1" xmlns="http://www.w3.org/2000/svg" width="16" height="16" viewBox="0 0 16 16">
  <defs>
    <style>
      .cls-1 {
        fill: #fff;
      }
    </style>
  </defs>
  <title>expand-diagonal-right</title>
  <path
    d="M0,0V16H16V0ZM7.86,9.09l-2,2,.85.85a.36.36,0,0,1,0,.54.36.36,0,0,1-.26.11H3.81a.38.38,0,0,1-.38-.38V9.52a.36.36,0,0,1,.11-.26.36.36,0,0,1,.54,0l.85.85,2-2a.2.2,0,0,1,.14-.06.18.18,0,0,1,.13.06l.68.68A.16.16,0,0,1,7.92,9,.2.2,0,0,1,7.86,9.09Zm4.71-2.61a.36.36,0,0,1-.11.26.36.36,0,0,1-.54,0l-.85-.85-2,2A.2.2,0,0,1,9,7.92a.18.18,0,0,1-.13-.06l-.68-.68a.16.16,0,0,1-.06-.13.2.2,0,0,1,.06-.14l2-2-.85-.85a.36.36,0,0,1,0-.54.36.36,0,0,1,.26-.11h2.67a.38.38,0,0,1,.38.38Z" />
  <path class="cls-1"
    d="M12.19,3.43H9.52a.36.36,0,0,0-.26.11.36.36,0,0,0,0,.54l.85.85-2,2a.2.2,0,0,0-.06.14.16.16,0,0,0,.06.13l.68.68A.18.18,0,0,0,9,7.92a.2.2,0,0,0,.14-.06l2-2,.85.85a.36.36,0,0,0,.54,0,.36.36,0,0,0,.11-.26V3.81a.38.38,0,0,0-.38-.38Z" />
  <path class="cls-1"
    d="M7.18,8.14a.18.18,0,0,0-.13-.06.2.2,0,0,0-.14.06l-2,2-.85-.85a.36.36,0,0,0-.54,0,.36.36,0,0,0-.11.26v2.67a.38.38,0,0,0,.38.38H6.48a.36.36,0,0,0,.26-.11.36.36,0,0,0,0-.54l-.85-.85,2-2A.2.2,0,0,0,7.92,9a.16.16,0,0,0-.06-.13Z" />
</svg>