<svg id="Layer_1" data-name="Layer 1" xmlns="http://www.w3.org/2000/svg" width="16" height="16" viewBox="0 0 16 16">
  <defs>
    <style>
      .cls-1 {
        fill: #fff;
      }
    </style>
  </defs>
  <title>expand-horizontal</title>
  <path
    d="M0,0V16H16V0ZM7.33,8.48a.18.18,0,0,1-.06.14.2.2,0,0,1-.14.05H4.34V9.89a.36.36,0,0,1-.11.26.33.33,0,0,1-.27.11.33.33,0,0,1-.27-.11L1.8,8.27A.41.41,0,0,1,1.69,8a.37.37,0,0,1,.11-.27L3.69,5.84A.33.33,0,0,1,4,5.74a.36.36,0,0,1,.27.1.4.4,0,0,1,.11.27V7.33H7.13a.16.16,0,0,1,.14,0,.18.18,0,0,1,.06.14Zm6.87-.21-1.89,1.88a.39.39,0,0,1-.54,0,.36.36,0,0,1-.11-.26V8.67H8.87a.17.17,0,0,1-.14-.05.18.18,0,0,1-.06-.14v-1a.18.18,0,0,1,.06-.14.16.16,0,0,1,.14,0h2.79V6.11a.4.4,0,0,1,.11-.27.33.33,0,0,1,.27-.1.36.36,0,0,1,.27.1L14.2,7.73a.41.41,0,0,1,.11.27A.37.37,0,0,1,14.2,8.27Z" />
  <path class="cls-1"
    d="M7.13,7.33H4.34V6.11a.4.4,0,0,0-.11-.27A.36.36,0,0,0,4,5.74a.33.33,0,0,0-.27.1L1.8,7.73A.37.37,0,0,0,1.69,8a.41.41,0,0,0,.11.27l1.89,1.88a.33.33,0,0,0,.27.11.33.33,0,0,0,.27-.11.36.36,0,0,0,.11-.26V8.67H7.13a.2.2,0,0,0,.14-.05.18.18,0,0,0,.06-.14v-1a.18.18,0,0,0-.06-.14A.16.16,0,0,0,7.13,7.33Z" />
  <path class="cls-1"
    d="M12.31,5.84a.36.36,0,0,0-.27-.1.33.33,0,0,0-.27.1.4.4,0,0,0-.11.27V7.33H8.87a.16.16,0,0,0-.14,0,.18.18,0,0,0-.06.14v1a.18.18,0,0,0,.06.14.17.17,0,0,0,.14.05h2.79V9.89a.36.36,0,0,0,.11.26.39.39,0,0,0,.54,0L14.2,8.27A.37.37,0,0,0,14.31,8a.41.41,0,0,0-.11-.27Z" />
</svg>