<svg id="Layer_1" data-name="Layer 1" xmlns="http://www.w3.org/2000/svg" width="16" height="16" viewBox="0 0 16 16">
  <defs>
    <style>
      .cls-1 {
        fill: #fff;
      }
    </style>
  </defs>
  <title>expand-vertical</title>
  <path
    d="M0,0V16H16V0ZM10.16,12.31,8.27,14.2a.41.41,0,0,1-.27.11.37.37,0,0,1-.27-.11L5.85,12.31a.39.39,0,0,1,0-.54.36.36,0,0,1,.26-.11H7.33V8.87a.16.16,0,0,1,0-.14.18.18,0,0,1,.14-.06h1a.18.18,0,0,1,.14.06.16.16,0,0,1,.05.14v2.79H9.89a.4.4,0,0,1,.27.11.33.33,0,0,1,.1.27A.36.36,0,0,1,10.16,12.31Zm0-8.08a.4.4,0,0,1-.27.11H8.67V7.13a.17.17,0,0,1-.05.14.18.18,0,0,1-.14.06h-1a.18.18,0,0,1-.14-.06.2.2,0,0,1,0-.14V4.34H6.11a.36.36,0,0,1-.26-.11A.33.33,0,0,1,5.74,4a.33.33,0,0,1,.11-.27L7.73,1.8A.41.41,0,0,1,8,1.69a.37.37,0,0,1,.27.11l1.89,1.89a.33.33,0,0,1,.1.27A.36.36,0,0,1,10.16,4.23Z" />
  <path class="cls-1"
    d="M9.89,11.66H8.67V8.87a.16.16,0,0,0-.05-.14.18.18,0,0,0-.14-.06h-1a.18.18,0,0,0-.14.06.16.16,0,0,0,0,.14v2.79H6.11a.36.36,0,0,0-.26.11.39.39,0,0,0,0,.54L7.73,14.2a.37.37,0,0,0,.27.11.41.41,0,0,0,.27-.11l1.89-1.89a.36.36,0,0,0,.1-.27.33.33,0,0,0-.1-.27A.4.4,0,0,0,9.89,11.66Z" />
  <path class="cls-1"
    d="M8.27,1.8A.37.37,0,0,0,8,1.69a.41.41,0,0,0-.27.11L5.85,3.69A.33.33,0,0,0,5.74,4a.33.33,0,0,0,.11.27.36.36,0,0,0,.26.11H7.33V7.13a.2.2,0,0,0,0,.14.18.18,0,0,0,.14.06h1a.18.18,0,0,0,.14-.06.17.17,0,0,0,.05-.14V4.34H9.89a.4.4,0,0,0,.27-.11.36.36,0,0,0,.1-.27.33.33,0,0,0-.1-.27Z" />
</svg>